<?xml version="1.0" encoding="utf-8"?>
<!-- Generator: Adobe Illustrator 23.0.6, SVG Export Plug-In . SVG Version: 6.00 Build 0)  -->
<svg version="1.1" id="Layer_1" xmlns="http://www.w3.org/2000/svg" xmlns:xlink="http://www.w3.org/1999/xlink" x="0px" y="0px"
	 viewBox="0 0 1962 1323.9" style="enable-background:new 0 0 1962 1323.9;" xml:space="preserve">
<style type="text/css">
	.st0{fill:#FFFFFF;}
	.st1{fill:#FFCFCC;}
	.st2{fill:#031435;}
	.st3{fill-rule:evenodd;clip-rule:evenodd;fill:#031435;}
	.st4{fill:#EF9898;}
	.st5{fill:#E57472;}
	.st6{fill:#F89D9D;}
	.st7{fill:#CE6372;}
	.st8{fill:#FFABA9;}
	.st9{fill:#712D24;}
	.st10{fill:#C64327;}
	.st11{fill:#CF6472;}
	.st12{fill:#512A3B;}
	.st13{fill:#E5807E;}
	.st14{fill:#3A1B2B;}
	.st15{fill:#422030;}
	.st16{fill:#EC5E76;}
</style>
<rect x="-1.5" y="-2.1" class="st0" width="1957.9" height="1321.1"/>
<g>
	<path class="st1" d="M587.3,772.9c27.9,67.8,48.6,140,42.8,212.4c-5.8,72.3-41.6,145.1-106.5,183.7c-40.4,24-89.2,33.4-137.1,33.4
		c-34.5,0-69.4-4.8-101.3-17.4c-61.6-24.3-108-76.7-132.1-135.4c-24.1-58.7-27.7-123.4-20.9-185.9c3.6-33.4,10.4-67.2,27.6-96.5
		c40-68.3,131-81,213.5-72.1C455.8,704,547.8,709.2,587.3,772.9"/>
</g>
<g>
	<path class="st2" d="M311.4,852.2c-29.4,36.9-52,79.2-66.4,124.1c-4.4,13.8-7.5,30.3,1.7,41.4c9.3,11.3,26.6,11.2,39.4,18.5
		c9.3,5.3,16.1,14.4,25.9,18.7c25.7,11.1,52.8-16.9,80.8-15.2c12.2,0.7,23.3,7.1,34.9,10.9c11.6,3.8,26,4.3,34.5-4.5
		c3.1-3.2,5.1-7.5,8.7-10.1c7.4-5.3,18.2-1.7,26.6-5.4c9.9-4.4,12.9-17.6,10-28.1c-2.9-10.5-9.9-19.1-15.3-28.5
		c-12.9-22.4-16.5-49.3-29.4-71.7c-19.1-33.1-59-52.9-96.9-47.9"/>
</g>
<g>
	<path class="st3" d="M321.7,1022.2c-18.4-16.4-29-41.7-34.4-67.3c-4.3-20.4-5.7-42-1-62.3c4.7-20.3,16.2-39.1,32.8-48.7
		c14.3-8.2,30.9-8.9,46.9-8c30.9,1.8,64.5,11.4,82.4,39.9c12.6,20,15.1,46,12.6,70.3c-2,19.2-7.1,38.5-18,53.4
		c-21,28.8-57.8,34.8-91,35.3c-12.7,0.2-27.8-1.6-33.9-14.1"/>
</g>
<g>
	<path class="st1" d="M1383.9,526.2c-18-70.7-28.7-145-14.3-216.4s57.2-140,123.4-171.3c41.2-19.5,88.5-23.4,133.8-18
		c32.7,3.9,65.1,12.5,93.8,28.6c55.3,31.1,92.8,88.4,108.3,149.6c15.6,61.2,11,126-3.1,187.6c-7.5,32.9-18.1,65.8-38,93.1
		c-46.2,63.6-134,66.2-210.9,48.2S1413.5,594.1,1383.9,526.2"/>
</g>
<g>
	<path class="st1" d="M731.7,406.4c15.4-71.3,39-142.6,83.7-200.1s113.7-99.8,186.9-98.2c45.6,1,89.7,18.6,127.9,43.6
		c27.5,18,52.7,40.3,71.2,67.5c35.7,52.5,43.6,120.6,30.2,182.3c-13.4,61.7-46.4,117.7-86.5,166.5c-21.4,26.1-45.6,50.8-75.6,66.4
		c-69.8,36.3-156.7,11.7-217.6-38.8S727.9,480.4,731.7,406.4"/>
</g>
<g>
	<path class="st1" d="M285,621.3C229.3,574.2,177.5,520,147.6,453.5s-35.1-147.1,0.2-210.9c22-39.7,58-70.4,97.8-92.3
		c28.7-15.8,59.9-27.6,92.5-31.1c62.8-6.8,126.4,18.1,174.6,58.9s82.2,96.2,106.5,154.4c13,31.1,23.6,64,23.4,97.8
		c-0.4,78.6-69.9,131.6-142.6,161.5C427.3,621.7,348.4,659.3,285,621.3"/>
</g>
<path class="st2" d="M1596.2,206.3c-16.5-1.4-34.3,1.6-46,10.1c-5.7,4.1-9.7,9.3-15.6,13.2c-6.6,4.4-15.2,6.9-22.3,10.9
	c-12.5,7.1-19.3,19-17.5,30.4c0.8,5.1,3.3,10.2,1.8,15.2c-1.7,5.8-8.2,10.1-13.2,14.8c-11.7,11-15.8,25.8-11,39.2
	c3.8,10.6,13,21,9.2,31.5c-3.4,9.7-16.6,15.8-24.9,23.9c-15.2,14.9-12.9,35.2-9.8,53.5c0.4,2.2,0.9,4.6,3.1,6.2
	c2.1,1.5,5.1,1.9,8,2.2c49,5.1,99.1-6.9,148.1-2c2.2,0.2,4.7,0.4,6.5-0.5c1.8-0.9,2.2-2.7,2.6-4.3c1.3-6.5,2.7-12.9,4-19.4
	c10.1-50.4,17.8-101.1,23-151.9c1.8-17.3,5.4-36.5,1.7-53.7C1641.2,212.9,1611.5,207.6,1596.2,206.3z"/>
<path class="st2" d="M1676.9,218.4c10.2,4.3,17.8,11.8,20.3,20.1c1.8,5.8,1.6,12.4,7.3,16.6c2.4,1.8,5.6,2.9,8.4,4.3
	c9.7,5,14.3,14,13.9,22.6c-0.6,10.5-7.8,21.5-2,31.2c3.6,6,11.5,10,16.8,15.3c10.9,10.8,10,25.7,4.1,38.4
	c-3.3,7.3-8.1,15.3-3.2,22.1c3.8,5.3,12.4,8,17.4,12.8c5.5,5.3,5.7,12.5,4.7,19.1c-1.4,9-4.8,17.8-10,26c-1.2,1.8-2.5,3.7-4.8,4.8
	c-2.8,1.4-6.5,1.5-9.9,1.5c-35,0-69.9,0-104.9,0c-3.8,0-8.1-0.1-10.7-2.1c-1.5-1.1-2.1-2.6-2.7-4.1c-7.5-18.8-8.7-38.6-9.3-58.1
	c-1.8-53.8,0.3-108.3,20.5-160.1c2.2-5.7,4.8-12.5,13.7-14C1656.5,213.1,1668.1,214.7,1676.9,218.4z"/>
<path class="st4" d="M1659.1,465.4c0,0-8.4,41.9-52.7,41.9c-44.3,0-47.3-39.2-47.3-39.2s5.9-6,11.8-21.1c3.8-9.6,7.5-25.2,9.7-35.4
	c1.3-5.9,2.1-9.9,2.1-9.9h53.2c0,0,0.7,3.7,1.8,9.5c1.1,6.1,2.6,14.5,4.1,23.7C1644.7,453,1659.1,465.4,1659.1,465.4z"/>
<path class="st5" d="M1637.6,411.2c-2.3,7.4-6.3,14.3-11.6,19.8c-2.2,2.2-4.6,4.3-7.3,5.6c-9.3,4.6-21,0.4-28.1-7.2
	c-4.7-5.1-7.7-11.3-10.1-17.8c-0.2-0.6-0.4-1.2-0.6-1.8c-1.1-3.3-3.1-6.5-0.3-8.2c1.7-1,7.1-0.2,10.3,0c0.7,0.1,1.2,0.1,1.6,0.1
	c0.2,0,0.4,0,0.7-0.1h43.6C1635.9,401.7,1636.6,405.3,1637.6,411.2z"/>
<path class="st4" d="M1676.7,352.5c-0.2,1-0.4,2-0.7,2.9c-5.7,23.6-19.7,46.3-39,58c-20.5,12.4-45.4,7.2-62.4-10.1
	c-13.9-14.1-23-34.6-27.1-55.8c-2.2-10.8-3-21.9-2.5-32.4c1.7-35.7,18.4-75.2,49.6-88.1c7.7-3.2,16.4-4.9,25-4.7
	c10.2,0.3,20.3,3.2,28.6,9.6c11.8,9,20.2,22.7,25.1,37.6C1681.6,295.1,1682.4,326,1676.7,352.5z"/>
<g>
	<path class="st2" d="M1644.1,241.6c5.4,5.4,14.3,6.9,18.2,13.5c5.7,9.6-3,23.3,3.3,32.4c3.8,5.6,12,7.1,15.4,13
		c3.5,5.9,1.5,15,7.3,18.6c9.6-7.5,11.1-21.5,9.7-33.6c-2.3-18.6-9.9-36.5-21.7-51c-4.4-5.4-9.5-10.4-15.6-13.7
		c-5.6-3-15.7-6.5-19.9,0.4C1637.1,227.2,1639.5,237,1644.1,241.6z"/>
	<path class="st2" d="M1634.4,237.1c-5.8,2.9-12.6,3.1-19.1,2.8c-6.5-0.3-13-1.1-19.4,0c-3.3,0.6-6.5,1.7-9.2,3.7
		c-9.3,7-8.5,21.8-16.7,30.1c-3.7,3.8-8.9,5.7-12.8,9.4c-7.9,7.4-8.9,19.9-16.3,27.8c-1.9,2-4.7,3.8-7.3,2.8c-2.4-0.8-3.5-3.5-4.2-6
		c-7-23.8-0.5-51,16.3-69.1c11.4-12.2,26.8-20.2,42.7-25.2c8.3-2.6,17-4.5,25.7-3.6c8.5,0.9,19.8,4.5,26.6,10.1
		C1647.3,225.2,1641.1,233.8,1634.4,237.1z"/>
	<path class="st2" d="M1541.8,330.7c0.6,1.4,1.5,3.1,3.1,3.3c1.3,0.2,2.6-0.8,3.2-2c0.6-1.2,0.7-2.6,0.7-3.9
		c0.4-10.9,0.9-21.9,1.3-32.8c0.2-5.6,0.1-12-4.2-15.6c-11.3-9.6-16.9,8.5-16.8,16.6C1529.2,307.8,1537.2,320.6,1541.8,330.7z"/>
	<path class="st2" d="M1680.6,333.5c-0.6,1.3-1.5,2.7-2.9,2.8c-1.2,0.1-2.3-0.8-2.8-1.9c-0.5-1.1-0.5-2.3-0.5-3.5
		c0-9.8,0.1-19.6,0.1-29.5c0-5,0.4-10.8,4.3-13.8c10.5-8.2,14.8,8.3,14.4,15.6C1692.8,313.4,1685,324.6,1680.6,333.5z"/>
</g>
<g>
	<path class="st2" d="M464.4,237.3c5.2,4.2,10.2,9,12.7,15c2.2,5.3,2.5,11.2,4.1,16.7c3.6,12.1,13.4,21.2,19.3,32.3
		c5.6,10.5,7.7,22.8,5.7,34.5c-1.6,9.5-5.7,19-3.4,28.3c2.9,11.7,14.8,18.9,20.7,29.4c4.7,8.3,5.5,18.1,5.8,27.6
		c0.6,14.5,0.3,29-0.5,43.5H387.5c0,2.6,0.2-2.6,0.2,0c-8.1-10-12.4-14.6-14.2-27.2c-1.8-12.6-1.3-25.4-0.8-38.2
		c1.3-33.4,2.5-66.9,8.6-99.8c5.1-27.4,13.6-54.1,22-80.7c0.6-1.8,1.2-3.8,2.8-4.9c5.7-4.2,13.3-8.3,19.7-5.8
		C436.1,212.1,456,230.5,464.4,237.3z"/>
	<path class="st2" d="M270.2,251.9c-7.8,8.4-13.3,19.1-15.7,30.4c-4.1,18.8-0.3,40.1-10.8,56.2c-4.6,7.1-11.6,12.3-17.1,18.7
		c-11.1,13.1-15.4,31-15.4,48.3c0,17.3,4.1,34.3,8.1,51.1c0.6,2.7,2.3,5.2,2.9,7.9h153.3c-0.7,0-0.3,1.2,0.3,1
		c0.6-0.2,0.8-1.1,0.8-1.8c1.9-37.1,6.2-74.3,1.3-111.1c-5.7-43.1-24-83.8-48.9-119c-5.1-7.1,13.7-22.9,9.2-30
		c-10.9,3.2-35.4,22.2-43.9,28.5C286.2,238.4,277.4,244.2,270.2,251.9z"/>
	<path class="st2" d="M426.7,208.7c9.3,6.2,14.2,17.2,23.3,23.7c3.2,2.3,6.9,4,10.2,6.3c5.9,4.2,10.3,10.4,12.3,17.4
		c3.3,11.8-0.3,25.3,5.8,35.9c2.6,4.4,6.6,7.9,9.2,12.3c4.6,7.9,4,17.6,4.7,26.7c0.4,5.7,1.5,11.4,0.2,17
		c-1.4,6.4-5.7,11.8-9.9,16.9c-2.9,3.5-5.9,7.2-10.1,9c-6.3,2.6-13.5,0.4-19.9-1.8c-5.2-1.8-10.5-3.6-14.6-7.3
		c-8.1-7.2-9-19.2-9.7-30c-0.7-10.7-1.8-21.4-3.4-32.1c-0.8-5.8-1.8-11.7-4-17.1c-3.6-8.8-10.5-16.1-14.5-24.8
		c-4.2-9.1-4.9-19.3-5.5-29.2c-0.3-5.8-4-22.2,0.6-26C407.3,200.7,421.4,205.2,426.7,208.7z"/>
	<path class="st2" d="M401,222.5c-0.6-6.4-1.6-13.1-6-18c-5.4-6.1-14.5-7.7-22.9-7.8c-9.6-0.1-19.2,1.5-28.2,4.5
		c-4.5,1.5-9,3.5-12.6,6.5c-4.5,3.8-7.4,8.9-11.2,13.4c-10.8,12.9-28.7,20.3-36.4,35.1c-6.8,12.9-4.2,28.4-8.1,42.4
		c-2.6,9.2-8.1,18.4-5.8,27.7c1.6,6.2,6.4,11.1,11.6,15.1c3.8,3,8.1,5.6,13,6.6c10.6,2.2,21.1-4,28.9-11.2
		c12.5-11.7,21.6-26.8,36.4-35.7c7.6-4.6,16.3-7.4,23.4-12.7C402.8,273.3,402.9,244.4,401,222.5z"/>
</g>
<path class="st6" d="M432.5,498.5c0,0-10.1,44.7-60.6,44.7s-53.9-44.7-53.9-44.7s6.7-6.9,13.5-24.1c4.3-10.9,8.6-28.8,11.1-40.3
	c1.5-6.7,2.4-11.3,2.4-11.3h60.6c0,0,0.8,4.2,2,10.8c1.3,6.9,3,16.5,4.7,27C415.6,481.3,432.5,498.5,432.5,498.5z"/>
<path class="st5" d="M407.5,433.7c-2.6,8.5-7.1,16.3-13.2,22.6c-2.5,2.5-5.2,4.8-8.3,6.4c-10.6,5.2-23.9,0.5-32-8.2
	c-5.4-5.8-8.8-12.9-11.5-20.3c-0.2-0.7-0.5-1.3-0.7-2c-1.3-3.8-3.5-7.4-0.3-9.3c1.9-1.1,8.1-0.2,11.7,0c0.7,0.1,1.4,0.1,1.9,0.1
	c0.2,0,0.4,0,0.8-0.1h49.7C405.5,422.9,406.3,427,407.5,433.7z"/>
<path class="st6" d="M446.9,372.4c-0.2,1-0.5,2.1-0.7,3.2c-6.3,25.6-21.8,50.2-43.2,62.9c-22.7,13.5-50.2,7.8-69.1-10.9
	c-15.4-15.2-25.5-37.5-30-60.6c-2.4-11.7-3.3-23.8-2.7-35.2c1.9-38.7,20.4-81.5,54.9-95.6c8.6-3.5,18.1-5.3,27.6-5.1
	c11.3,0.3,22.5,3.5,31.7,10.4c13.1,9.7,22.4,24.6,27.7,40.8C452.3,310.1,453.3,343.7,446.9,372.4z"/>
<g>
	<path class="st2" d="M401.1,278.2c-1.4,10-9.7,16.4-7.3,26.2c0.3,1.1,0.6,2.4,0.2,3.4c-0.6,1.6-2.3,2-3.9,2.2
		c-21.6,2.4-43.2,4.8-64.8,7.2c0,0-13.2,4.1-0.4-37c0,0-13.9,2.5-15,38.4c-7.5,0.8-11.7,1.5-19.2,2.4c-2.8-25.2,8.8-49.6,23.1-68.5
		c15.7-20.8,35.7-37.7,58.5-44.5c6.1-1.8,12.7-2.9,18.7-0.5c15.2,6.1,28.5,29.4,23.8,43.3C412,259.4,402.4,269.2,401.1,278.2z"/>
	<path class="st2" d="M406.2,265c5.6,15.2,14.9,29.6,14.4,46.1c15.8,8.8,31.6,17.6,47.4,26.4c2-30.7-5.5-62.1-20.7-87
		c-8.8-14.4-22.8-30.9-38.1-34.4C391.1,212,402.7,255.4,406.2,265z"/>
</g>
<path class="st2" d="M299,349.8c-1.5,0.4-2.7-1.2-3.4-2.6c-4.1-8-8.2-16.3-8.8-25.3c-0.4-5.2,0.7-10.6,3.3-15.1
	c3.1-5.2,8.3-10.3,8.8-1.3C299.9,320.2,299.7,335,299,349.8z"/>
<path class="st2" d="M451,342.1c0,0.5,0,1.1,0.3,1.6c0.5,0.8,1.7,0.9,2.6,0.5c0.8-0.4,1.4-1.2,2-2c4.2-6,7.9-12.4,9.9-19.5
	c2-7,2.2-14.7-0.5-21.5c-0.8-2.1-1.9-4.1-3.7-5.5c-1.7-1.4-4.2-2.1-6.2-1.3c-7.6,2.9-5.3,14-5.1,20
	C450.5,323.6,450.7,332.8,451,342.1z"/>
<g>
	<path class="st7" d="M342.9,383.8c4.4,7.9,2.2,17.5-4.9,21.5s-16.4,0.9-20.9-7s-4.6-21.7,2.5-25.7S338.5,376,342.9,383.8z"/>
</g>
<g>
	<path class="st7" d="M410.9,385.8c-4.4,7.9-2.2,17.5,4.9,21.5c7.1,4,16.4,0.9,20.9-7c4.4-7.9,4.6-21.7-2.5-25.7
		S415.3,377.9,410.9,385.8z"/>
</g>
<g>
	<path class="st1" d="M1211,821.1c14.5,71.5,21.6,146.2,3.7,216.9c-17.9,70.7-64,137.1-131.6,165.1c-42.1,17.4-89.6,19-134.6,11.5
		c-32.4-5.5-64.4-15.7-92.2-33.1c-53.7-33.7-88.3-92.9-100.9-154.8c-12.6-61.9-4.8-126.4,12.3-187.2c9.2-32.5,21.3-64.8,42.5-91.2
		c49.3-61.3,137.1-59.6,213-37.8S1184.7,751.9,1211,821.1"/>
</g>
<g>
	<path class="st1" d="M1373.4,1089.9c-18-70.7-28.7-145-14.3-216.4s57.2-140,123.4-171.3c41.2-19.5,88.5-23.4,133.8-18
		c32.7,3.9,65.1,12.5,93.8,28.6c55.3,31.1,92.8,88.4,108.3,149.6c15.6,61.2,11,126-3.1,187.6c-7.5,32.9-18.1,65.8-38,93.1
		c-46.2,63.6-134,66.2-210.9,48.2S1403,1157.7,1373.4,1089.9"/>
</g>
<path class="st8" d="M1039.7,468.2c0,0-9.3,41.1-55.7,41.1c-46.4,0-49.5-41.1-49.5-41.1s6.2-6.3,12.4-22.1c3.9-10,7.9-26.4,10.2-37
	c1.4-6.1,2.2-10.4,2.2-10.4h55.7c0,0,0.7,3.8,1.9,10c1.2,6.4,2.8,15.2,4.3,24.8C1024.2,452.4,1039.7,468.2,1039.7,468.2z"/>
<path class="st5" d="M1016.8,408.6c-2.4,7.8-6.6,15-12.2,20.7c-2.3,2.3-4.8,4.5-7.6,5.9c-9.8,4.8-22,0.4-29.4-7.6
	c-4.9-5.3-8.1-11.9-10.6-18.7c-0.2-0.6-0.4-1.2-0.6-1.9c-1.2-3.5-3.3-6.8-0.3-8.5c1.8-1,7.4-0.2,10.7,0c0.7,0.1,1.3,0.1,1.7,0.1
	c0.2,0,0.4,0,0.7-0.1h45.7C1014.9,398.6,1015.6,402.5,1016.8,408.6z"/>
<g>
	<path class="st2" d="M1054.2,404.8c-4.8,3.1-9.8,6.4-10.9,10.5c-0.5,1.7-0.2,3.6,1.7,4.9c1.5,1.2,4,1.8,5.2,3.1
		c1.5,1.7,0.2,3.8-1.9,5.2c-2.1,1.4-5,2.4-7.3,3.7c-5.5,3.1-7.8,7.9-5.7,12.2c0.6,1.3,1.6,2.5,3.2,3.4c2.1,1.2,5,1.7,7.6,2.4
		c2.7,0.7,5.4,1.7,6.2,3.3c0.7,1.3,0,2.8-0.3,4.1c-0.5,2.4,0.3,5,2.6,7c2.3,2,6.2,3.5,10.3,3.6c7.1,0.2,13.6-3.2,20.7-2.9
		c4.4,0.2,8.4,1.8,12.8,2.1c2.9,0.2,6-0.1,8.6-1c2-0.7,3.7-1.7,4.3-2.9c0.7-1.5-0.2-3,0.2-4.5c0.5-1.9,2.9-3.4,4.4-5.1
		c2.5-2.8,2.8-6.2,0.6-9.1c-2-2.7-6-5-6.5-8c-0.4-2.3,1.6-4.5,2.2-6.8c1.3-4.9-4.3-10.1-12.3-11.5c-4-0.7-8.5-0.6-11.9-2
		c-1.6-0.7-2.9-1.6-3.9-2.6c-2.3-2.3-3.7-4.8-5.7-7.2c-2-2.4-4.6-4.7-8.6-5.9c-4-1.2-9.5-1-12.4,1"/>
	<path class="st2" d="M1055.1,403.8c1.2,0.2,2.5,0,3.7-0.1c3.3-0.5,6.6-0.9,10-1.4c0.9-0.1,1.8-0.3,2.3-0.7c0.6-0.5,0.5-1.1,0.4-1.7
		c-0.5-2.8-0.4-6.2-5.8-6.7c-3.3-0.3-7.5-0.4-10.6,0.4C1049.5,395.1,1048.4,402.8,1055.1,403.8z"/>
</g>
<g>
	<path class="st2" d="M977.6,193.5c-8.6-2.5-18-0.2-26.2,3.5c-8.1,3.7-15.5,8.9-23.8,12.5c-5.5,2.4-11.4,4.2-16,8
		c-4.9,4.1-7.8,10.1-9.1,16.3c-1.4,6.9-1.1,14.1-3.8,20.6c-3.1,7.2-9.5,12.5-14.1,18.9c-5.9,8.4-8.4,19-6.7,29.1
		c1.3,7.9,4.9,15.6,3.5,23.5c-1.3,7.2-6.7,13.3-7.6,20.5c-1.2,9,4.7,17.4,11.7,23.4c6.9,6,15.2,10.6,21.3,17.4
		c4.5,5.1,8.2,11.6,14.8,13.6c6.8,2.1,14.9-1.4,21.1,2.1c3.5,2,5.7,5.9,9.4,7.5c5.5,2.4,12-1.5,14.7-6.7c2.7-5.2,2.6-11.3,2.6-17.1
		c0-15.4,1.5-30.8,4.5-46c1.5-7.7,3.4-15.5,3.3-23.4c0-8.4-2.3-16.6-3.9-24.9c-2.4-12.1-3.5-25,1.4-36.3c2.9-6.7,7.7-12.4,10.4-19.1
		C990.9,222.8,998.3,199.5,977.6,193.5z"/>
	<path class="st2" d="M1002.4,193.5c8.6-2.5,18-0.2,26.2,3.5c8.1,3.7,15.5,8.9,23.8,12.5c5.5,2.4,11.4,4.2,16,8
		c4.9,4.1,7.8,10.1,9.1,16.3c1.4,6.9,1.1,14.1,3.8,20.6c3.1,7.2,9.5,12.5,14.1,18.9c5.9,8.4,8.4,19,6.7,29.1
		c-1.3,7.9-4.9,15.6-3.5,23.5c1.3,7.2,6.7,13.3,7.6,20.5c1.2,9-4.7,17.4-11.7,23.4c-6.9,6-15.2,10.6-21.3,17.4
		c-4.5,5.1-8.2,11.6-14.8,13.6c-6.8,2.1-14.9-1.4-21.1,2.1c-3.5,2-5.7,5.9-9.4,7.5c-5.5,2.4-12-1.5-14.7-6.7
		c-2.7-5.2-2.6-11.3-2.6-17.1c0-15.4-1.5-30.8-4.5-46c-1.5-7.7-3.4-15.5-3.3-23.4c0-8.4,2.3-16.6,3.9-24.9c2.4-12.1,3.5-25-1.4-36.3
		c-2.9-6.7-7.7-12.4-10.4-19.1C989.1,222.8,981.7,199.5,1002.4,193.5z"/>
</g>
<path class="st8" d="M1051.7,352.3c-0.2,0.9-0.4,1.9-0.6,2.9c-5.6,23.5-19.3,46.2-38.3,57.8c-20.1,12.4-44.5,7.2-61.2-10.1
	c-13.6-14-22.6-34.4-26.6-55.7c-2.1-10.8-2.9-21.9-2.4-32.3c1.7-35.6,18.1-74.9,48.6-87.8c7.6-3.2,16.1-4.9,24.5-4.7
	c10,0.3,19.9,3.2,28.1,9.5c11.6,9,19.8,22.6,24.6,37.5C1056.5,295,1057.3,325.8,1051.7,352.3z"/>
<g>
	<path class="st2" d="M990.7,234.9c-0.3,3.1-0.7,6.3-2.3,9c-3.4,5.7-10.7,7.8-17.2,10.2c-10.7,3.9-21.1,10.5-25.3,20.6
		c-6.9,16.5,4.5,37.5-6.1,52.1c-3,4.2-7.5,7.2-10.7,11.2c-5.3,6.6-6.7,15.9-3.5,23.6c2.9,7,9.1,12.5,11.5,19.6
		c1.9,5.4,1.4,11.5-1.2,16.6c-2.7,5.1-7.5,9.3-8.9,14.9c-1.3,5.2,1,11.1,5.6,14.2c-11.8-1.7-21.1-13-20-24.3
		c0.7-6.9,4.7-13.4,4.4-20.4c-0.5-9.3-8.4-16.5-12.6-24.9c-4.1-8-4.7-17.5-1.8-25.9c1.9-5.4,5.2-10.5,6.2-16.1
		c1.4-8.4-2.5-16.7-4.6-25c-3.4-13.8-1.1-29.1,7.6-40.5c3.3-4.3,7.3-7.9,10.7-12.1c5.6-7,9.2-15.3,14.6-22.3
		c6-7.8,14.6-14.2,24.6-16.2c8.3-1.6,21.4,0.4,27.3,7C994.8,212.9,991.5,227,990.7,234.9z"/>
	<path class="st2" d="M989.2,234.9c0.3,3.1,0.7,6.3,2.2,9c3.2,5.7,10.2,7.8,16.4,10.2c10.2,3.9,20.1,10.5,24.1,20.6
		c6.6,16.5-4.2,37.5,5.8,52.1c2.9,4.2,7.1,7.2,10.2,11.2c5,6.6,6.4,15.9,3.3,23.6c-2.7,7-8.6,12.5-11,19.6
		c-1.8,5.4-1.4,11.5,1.2,16.6c2.6,5.1,7.2,9.3,8.5,14.9c1.2,5.2-1,11.1-5.3,14.2c11.2-1.7,20.1-13,19.1-24.3
		c-0.6-6.9-4.5-13.4-4.1-20.4c0.4-9.3,8-16.5,12-24.9c3.9-8,4.5-17.5,1.7-25.9c-1.8-5.4-5-10.5-5.9-16.1c-1.4-8.4,2.4-16.7,4.4-25
		c3.2-13.8,1.1-29.1-7.2-40.5c-3.1-4.3-7-7.9-10.2-12.1c-5.3-7-8.7-15.3-13.9-22.3c-5.7-7.8-13.9-14.2-23.5-16.2
		c-7.9-1.6-20.4,0.4-26,7C985.3,212.9,988.4,227,989.2,234.9z"/>
</g>
<g>
	<path class="st7" d="M958.5,362c4,7.1,2,15.8-4.4,19.4s-14.9,0.8-18.9-6.3c-4-7.1-4.2-19.7,2.2-23.3
		C943.9,348.2,954.5,354.9,958.5,362z"/>
</g>
<g>
	<path class="st5" d="M964.9,382c0,0-2.9,18.2,22.9,18.4c23.6,0.1,23-18.4,23-18.4H964.9z"/>
</g>
<g>
	<path class="st9" d="M988.8,396.2c-0.3,0-1.6,0-1.9,0c-22.3-0.7-26-17.1-18.2-15.7c6.1,1.1,32.2,1.1,38.3,0
		C1014.8,379.1,1011,395.5,988.8,396.2z"/>
</g>
<g>
	<path class="st0" d="M967.1,380.5c0,0-0.9,2.8,3.4,3.9c4.1,1.1,15.6,3.1,31.5,0.4c2.8-0.5,4.9-2.2,5.1-4.3c0,0,0-0.1,0-0.1"/>
</g>
<g>
	<path class="st5" d="M987,378.8c-0.9-1.2-4.5-1.6-8.5-0.2c-3.9,1.4-11.6,1.8-11.6,1.8s8.7,3.5,20.1,3.3c11.4-0.1,20.1-3.3,20.1-3.3
		s-7.7-0.4-11.6-1.8C991.5,377.2,987.9,377.6,987,378.8"/>
</g>
<g>
	<path class="st10" d="M979.7,395.3c0,0,6.7-11.1,27.7-5.7C1007.4,389.6,998.5,399.1,979.7,395.3z"/>
</g>
<g>
	<path class="st7" d="M1018.2,362c-4,7.1-2,15.8,4.4,19.4s14.9,0.8,18.9-6.3c4-7.1,4.2-19.7-2.2-23.3
		C1032.9,348.2,1022.2,354.9,1018.2,362z"/>
</g>
<g>
	<path class="st2" d="M932.1,317.9c0,0,14.1-12.4,36.1-9.7l-1.4-6.7C966.7,301.6,947.1,299.9,932.1,317.9z"/>
</g>
<g>
	<path class="st2" d="M969.5,334.5c-3-1.4-5.9-2.5-8.9-3.3c-3-0.8-5.9-1.4-9-1.6c-0.7-0.1-1.5-0.1-2.3-0.1c-0.8,0-1.5-0.1-2.3,0
		l-2.3,0c-0.8,0.1-1.5,0.2-2.3,0.2c-0.8,0-1.6,0.1-2.3,0.3l-2.4,0.3c-1.6,0.2-3.2,0.6-4.9,0.8c1.3-0.9,2.7-1.8,4.2-2.5
		c1.5-0.6,3-1.4,4.7-1.7c3.3-1,6.8-1.2,10.3-1c3.5,0.2,6.9,1.2,9.9,2.7C965,330,967.7,332,969.5,334.5z"/>
</g>
<g>
	<path class="st2" d="M956.7,327.3l-5.6-0.5c-1.9-0.1-3.7-0.3-5.5-0.3c-1.8-0.1-3.7-0.1-5.5-0.2c-1.9,0-3.7,0-5.7-0.1
		c3.6-1.3,7.5-1.7,11.3-1.6c1.9,0.1,3.8,0.3,5.7,0.8C953.3,325.8,955.1,326.4,956.7,327.3z"/>
</g>
<g>
	<path class="st5" d="M936.9,323.3c2.9-1.1,5.7-2.2,8.6-3c0.7-0.2,1.4-0.4,2.2-0.6l2.2-0.5c1.4-0.4,2.9-0.6,4.4-0.8
		c2.7-0.4,5.5-0.5,8.2-0.4c0.4,0.7,0.8,1.4,1.2,2.1c0.5,0.9,1.1,1.8,1.5,2.8c1,1.9,1.9,3.7,3.1,5.8c0.4-1.1,0.4-2.3,0.2-3.4
		c-0.1-1.1-0.6-2.2-1.1-3.3c-0.8-1.5-2-3-3.6-4c2.9,0.1,5.7,0.5,8.6,1.2c-2.7-1.5-5.7-2.4-8.9-2.8c-3.2-0.4-6.4-0.5-9.6,0
		c-3.2,0.5-6.3,1.2-9.1,2.5c-1.5,0.5-2.8,1.3-4.2,2C939.3,321.5,938.1,322.4,936.9,323.3z"/>
</g>
<g>
	<path class="st5" d="M966.5,335.5c-1-0.4-2.1-0.5-3.2-0.5c-1.1,0-2.1,0.1-3.1,0.3c-2,0.5-4,1.3-5.5,2.7c2.2-0.1,4.1-0.5,6-0.9
		C962.6,336.8,964.5,336.4,966.5,335.5z"/>
</g>
<g>
	<path class="st2" d="M1043.2,317.9c0,0-14.1-12.4-36.1-9.7l1.4-6.7C1008.6,301.6,1028.2,299.9,1043.2,317.9z"/>
</g>
<g>
	<path class="st2" d="M1005.8,334.5c3-1.4,5.9-2.5,8.9-3.3c3-0.8,5.9-1.4,9-1.6c0.7-0.1,1.5-0.1,2.3-0.1c0.8,0,1.5-0.1,2.3,0l2.3,0
		c0.8,0.1,1.5,0.2,2.3,0.2c0.8,0,1.6,0.1,2.3,0.3l2.4,0.3c1.6,0.2,3.2,0.6,4.9,0.8c-1.3-0.9-2.7-1.8-4.2-2.5c-1.5-0.6-3-1.4-4.7-1.7
		c-3.3-1-6.8-1.2-10.3-1c-3.5,0.2-6.9,1.2-9.9,2.7C1010.3,330,1007.6,332,1005.8,334.5z"/>
</g>
<g>
	<path class="st2" d="M1018.5,327.3l5.6-0.5c1.9-0.1,3.7-0.3,5.5-0.3c1.8-0.1,3.7-0.1,5.5-0.2c1.9,0,3.7,0,5.7-0.1
		c-3.6-1.3-7.5-1.7-11.3-1.6c-1.9,0.1-3.8,0.3-5.7,0.8C1022,325.8,1020.2,326.4,1018.5,327.3z"/>
</g>
<g>
	<path class="st5" d="M1038.4,323.3c-2.9-1.1-5.7-2.2-8.6-3c-0.7-0.2-1.4-0.4-2.2-0.6l-2.2-0.5c-1.4-0.4-2.9-0.6-4.4-0.8
		c-2.7-0.4-5.5-0.5-8.2-0.4c-0.4,0.7-0.8,1.4-1.2,2.1c-0.5,0.9-1.1,1.8-1.5,2.8c-1,1.9-1.9,3.7-3.1,5.8c-0.4-1.1-0.4-2.3-0.2-3.4
		c0.1-1.1,0.6-2.2,1.1-3.3c0.8-1.5,2-3,3.6-4c-2.9,0.1-5.7,0.5-8.6,1.2c2.7-1.5,5.7-2.4,8.9-2.8c3.2-0.4,6.4-0.5,9.6,0
		c3.2,0.5,6.3,1.2,9.1,2.5c1.5,0.5,2.8,1.3,4.2,2C1036,321.5,1037.2,322.4,1038.4,323.3z"/>
</g>
<g>
	<path class="st5" d="M1008.8,335.5c1-0.4,2.1-0.5,3.2-0.5c1.1,0,2.1,0.1,3.1,0.3c2,0.5,4,1.3,5.5,2.7c-2.2-0.1-4.1-0.5-6-0.9
		C1012.7,336.8,1010.8,336.4,1008.8,335.5z"/>
</g>
<path class="st6" d="M429.7,1103.6c0,0-10.1,44.7-60.6,44.7s-53.9-44.7-53.9-44.7s6.7-6.9,13.5-24.1c4.3-10.9,8.6-28.8,11.1-40.3
	c1.5-6.7,2.4-11.3,2.4-11.3h60.6c0,0,0.8,4.2,2,10.8c1.3,6.9,3,16.5,4.7,27C412.9,1086.4,429.7,1103.6,429.7,1103.6z"/>
<path class="st5" d="M404.8,1038.8c-2.6,8.5-7.1,16.3-13.2,22.6c-2.5,2.5-5.2,4.8-8.3,6.4c-10.6,5.2-23.9,0.5-32-8.2
	c-5.4-5.8-8.8-12.9-11.5-20.3c-0.2-0.7-0.5-1.3-0.7-2c-1.3-3.8-3.5-7.4-0.3-9.3c1.9-1.1,8.1-0.2,11.7,0c0.7,0.1,1.4,0.1,1.9,0.1
	c0.2,0,0.4,0,0.8-0.1h49.7C402.8,1028,403.6,1032.1,404.8,1038.8z"/>
<path class="st6" d="M441.5,977.5c-0.2,1-0.5,2.1-0.7,3.2c-6.2,25.6-21.3,50.2-42.2,62.9c-22.2,13.5-49.1,7.8-67.5-10.9
	c-15-15.2-24.9-37.5-29.4-60.6c-2.3-11.7-3.2-23.8-2.7-35.2c1.9-38.7,19.9-81.5,53.7-95.6c8.4-3.5,17.7-5.3,27-5.1
	c11,0.3,22,3.5,30.9,10.4c12.8,9.7,21.9,24.6,27.1,40.8C446.7,915.3,447.7,948.8,441.5,977.5z"/>
<g>
	<path class="st3" d="M383.9,850.5c-30.1-9.8-50.4-43.5-44.9-74.8c1.1-6.5,3.3-12.8,7.2-18.1c9.7-13.3,27.9-17.1,44.3-16.7
		c8,0.2,16.2,1.3,23.5,4.7c20.6,9.7,28.4,37.6,19.8,58.7s-30.2,34.9-52.6,39.1"/>
</g>
<g>
	<path class="st3" d="M368.6,830.2c-20.5-2.3-37.9-18.9-44.2-38.5c-6.3-19.7-2.8-41.6,6.6-60c-2.6,18.7-5.3,38-0.9,56.4
		c4.4,18.4,17.4,36,35.9,40.1"/>
</g>
<g>
	<path class="st3" d="M388.2,820.2c16.4,2.4,29.9-14.3,32.9-30.6c3-16.3-0.5-33.2,1.5-49.7c8.5,9.9,16.3,21,19.4,33.6
		c3.1,12.7,0.7,27.4-8.8,36.4c-12.6,11.9-34.8,11.7-44,26.4"/>
</g>
<g>
	<path class="st7" d="M341.5,987.6c4.4,7.9,2.2,17.5-4.9,21.5c-7.1,4-16.5,0.9-20.9-7c-4.4-7.9-4.6-21.8,2.5-25.8
		C325.3,972.3,337,979.7,341.5,987.6z"/>
</g>
<g>
	<path class="st7" d="M404,987.8c-4.4,7.9-2.2,17.5,4.9,21.5c7.1,4,16.5,0.9,20.9-7s4.6-21.8-2.5-25.8
		C420.2,972.6,408.4,980,404,987.8z"/>
</g>
<g>
	<path class="st3" d="M288.6,924.7c32-2.4,64-4.8,96-7.2c2-0.2,4.1-0.3,5.9-1.3c2.6-1.4,4.3-4.1,6-6.8c5.8-9.2,11.5-18.4,17.3-27.6
		c3,11.7,5.9,23.4,8.9,35.1c0.5,1.8,1,3.7,2.1,5c1.4,1.5,3.3,1.9,5.2,2.2c9.6,1.6,19.3,2.4,28.9,2.5c3.1-14-3.2-28.3-9.2-41
		c-4.2-8.9-8.6-18-15.1-24.8c-8.1-8.5-18.8-12.8-29.4-16.2c-14.8-4.8-29.8-8.5-45-10.8c-11.8-1.8-24.1-2.9-35.2,2
		c-19.4,8.5-30,32.2-37.8,54.4c-4.3,12.2-8.2,26.6-2.3,37.9"/>
</g>
<g>
	<path class="st7" d="M1581.6,363.8c4.1,7.3,2.1,16.2-4.5,19.9c-6.6,3.7-15.2,0.8-19.3-6.5c-4.1-7.3-4.3-20.1,2.3-23.8
		C1566.6,349.7,1577.5,356.5,1581.6,363.8z"/>
</g>
<g>
	<path class="st7" d="M1642,361.9c-4.1,7.3-2.1,16.2,4.5,19.9c6.6,3.7,15.2,0.8,19.3-6.5c4.1-7.3,4.3-20.1-2.3-23.8
		C1656.9,347.7,1646.1,354.6,1642,361.9z"/>
</g>
<path id="XMLID_1191_" class="st11" d="M1620.6,370.1c-1.1-0.2-2.2,0-3.2,0.5c-1.6,0.8-3.1,1.7-4.6,1.7s-2.9-0.9-4.6-1.7
	c-1-0.5-2.2-0.6-3.2-0.5c0,0-0.1,0.1,0,0.1c2.8,0.3,4.3,2.8,7,3.6c0.6,0.1,1.1,0.1,1.7,0c2.6-0.8,4.1-3.3,7-3.6
	C1620.7,370.2,1620.6,370.1,1620.6,370.1z"/>
<path id="XMLID_1190_" class="st11" d="M1620.1,370.3c0.6-0.1,1.4-0.2,2.4-0.6c1.1-0.5,2.4-2.4,0.4-2.9c-1.7-0.4-2.8,0.7-3.5,1.5
	c-0.5,0.7-0.7,1.5-1.6,2L1620.1,370.3z"/>
<path id="XMLID_1189_" class="st11" d="M1605.6,370.3c-0.6-0.1-1.4-0.2-2.4-0.6c-1.1-0.5-2.4-2.4-0.4-2.9c1.7-0.4,2.8,0.7,3.5,1.5
	c0.5,0.7,0.7,1.5,1.6,2L1605.6,370.3z"/>
<g id="XMLID_1183_">
	<path id="XMLID_1187_" class="st2" d="M1582.3,271.1c0,0,3,41.5-38.2,68.3l-13.8-6.5c0,0-6.1-24.4-4.6-41.3
		c1.6-16.8,13.6-41.6,49.3-42.6c0,0,19-31.5,56.1-28.5c51.4,4.1,70.4,70,51.1,115.8c0,0-2.6-18.1-20.9-27.4
		C1643,299.5,1603.8,293.5,1582.3,271.1z"/>
	<path id="XMLID_1186_" class="st2" d="M1544.3,336.3c15.7-28.5-0.2-32.6-5.1-55.3c-1.5-6.9,3.3-21.3,12.8-27.1
		c-18.2,8.2-25.2,25.1-26.3,37.7c-1.6,16.8,4.6,41.3,4.6,41.3l12.1,5.7C1543,337.8,1543.8,337.2,1544.3,336.3z"/>
	<path id="XMLID_1185_" class="st2" d="M1744.2,321.4c-0.8-17.7-12-26.5-22.7-34.9c-10.7-8.3-17.2-12.7-33.7-33
		c-16.6-20.3-36.7-32-56.3-33.1c-0.1,0-0.1,0-0.2,0c-15.5-1.2-27.8,3.5-36.9,9.5c21.6-8.7,48.3-8.2,66.1,10.3
		c13.3,13.8,23.6,40.6,44,55.1c20.2,14.3,49.9,36.3,23.4,61.7C1737.8,350.1,1744.9,339.1,1744.2,321.4z"/>
	<path id="XMLID_1184_" class="st2" d="M1684.8,305.5l-1.4,29.4c0,0-1.4,18.1-3.3,21.7c-1.4,2.7-2.8-6.5-3.3-20.1
		c-0.5-13.6-4.4-19.4-4.4-19.4l12.3-12.4"/>
</g>
<path id="XMLID_1171_" class="st0" d="M1628.1,337.6c0,0,4.5-11.8,16.5-11.4c12,0.5,16.3,11.6,16.3,11.6s-3.6,11.5-16.7,11
	C1632,348.4,1628.1,337.6,1628.1,337.6z"/>
<ellipse id="XMLID_1170_" transform="matrix(0.8331 -0.5531 0.5531 0.8331 88.0241 965.1597)" class="st12" cx="1643.5" cy="336.7" rx="9.1" ry="9.1"/>
<path id="XMLID_1167_" class="st13" d="M1628.1,337.6c0,0-0.2-4.2,3.4-8c4.6-4.8,15.2-7.8,24.2-2.9c7.2,4,6.8,11.4,6.8,11.4
	s-1.6-5.1-15.2-6C1636.6,331.6,1628.1,337.6,1628.1,337.6z"/>
<path id="XMLID_1166_" class="st14" d="M1639.2,335.8c0.5-2.4,2.8-4,5.3-3.5c2.4,0.5,4,2.8,3.5,5.3s-2.8,4-5.3,3.5
	C1640.2,340.6,1638.7,338.2,1639.2,335.8z"/>
<path id="XMLID_1165_" class="st0" d="M1643.5,334.3c0.2-1.2,1.4-2,2.6-1.7c1.2,0.2,2,1.4,1.7,2.6c-0.2,1.2-1.4,2-2.6,1.7
	C1644.1,336.6,1643.3,335.5,1643.5,334.3z"/>
<path id="XMLID_1164_" class="st15" d="M1628.1,337.6c0.7,0.5,1.8-1.3,8.1-2.6c6.6-1.4,11.2-1.3,16.4-0.3c4.3,0.8,6.5,3.5,6.5,3.5
	s-2,5.3-7.5,8.3c-4.7,2.5-9.5,1.8-9.3,2.1c0.3,0.7,5.2,1.3,10.2-0.7c4-1.6,8.5-5.1,10.1-9.8c-0.1-1.7-3.8-6.3-14-6.9
	c-6.5-0.4-11.2-0.1-16.4,2.7C1628.1,336.2,1627.4,337.1,1628.1,337.6z"/>
<path id="XMLID_1162_" class="st13" d="M1612.7,386.8l-18.4,2.8c0,0,5.1,8.8,18.4,8.8s18.4-8.7,18.4-8.7L1612.7,386.8z"/>
<path id="XMLID_1161_" class="st7" d="M1620.6,383.8c-3.4-1.1-6.2,0.7-7.8,0.7s-4.4-1.8-7.8-0.7c-3.4,1.1-14.1,6.1-13.1,6.6
	c2.6,1.2,8.1-2.7,21-2.3c12.9-0.4,18.4,3.4,21,2.3C1634.7,389.9,1624,384.9,1620.6,383.8z"/>
<path id="XMLID_1160_" class="st7" d="M1612.7,396.8c-8.3,0-12.4-1.6-12.4-1.6c1.1,2.7,5.1,4.3,12.4,4.3c7.3,0,11.2-1.6,12.4-4.3
	C1625.1,395.3,1621,396.8,1612.7,396.8z"/>
<path id="XMLID_1158_" class="st2" d="M1629.7,322.1c-2.3,0-4.5-0.3-5.5,0.6c-2,1.7-0.6,5.2,6.3,5.6c4.6,0.3,13.9-1.4,18.1-1.3
	c10,0.4,14.8,1.4,18.2,2.5c0,0-3.1-6.5-13.8-7.5C1640.5,320.9,1636.5,322.2,1629.7,322.1z"/>
<path id="XMLID_1157_" class="st0" d="M1597.5,337.6c0,0-4.5-11.8-16.5-11.4c-12,0.5-16.3,11.6-16.3,11.6s3.6,11.5,16.7,11
	C1593.6,348.4,1597.5,337.6,1597.5,337.6z"/>
<ellipse id="XMLID_1156_" transform="matrix(0.5531 -0.8331 0.8331 0.5531 426.5677 1468.5698)" class="st12" cx="1582.1" cy="336.7" rx="9.1" ry="9.1"/>
<path id="XMLID_1153_" class="st13" d="M1597.5,337.6c0,0,0.2-4.2-3.4-8c-4.6-4.8-15.2-7.8-24.2-2.9c-7.2,4-6.8,11.4-6.8,11.4
	s1.6-5.1,15.2-6C1589,331.6,1597.5,337.6,1597.5,337.6z"/>
<path id="XMLID_1152_" class="st14" d="M1586.4,335.8c-0.5-2.4-2.8-4-5.3-3.5c-2.4,0.5-4,2.8-3.5,5.3c0.5,2.4,2.8,4,5.3,3.5
	C1585.4,340.6,1586.9,338.2,1586.4,335.8z"/>
<path id="XMLID_1151_" class="st0" d="M1582.1,334.3c-0.2-1.2-1.4-2-2.6-1.7c-1.2,0.2-2,1.4-1.7,2.6c0.2,1.2,1.4,2,2.6,1.7
	C1581.5,336.6,1582.3,335.5,1582.1,334.3z"/>
<path id="XMLID_1150_" class="st15" d="M1597.5,337.6c-0.7,0.5-1.8-1.3-8.1-2.6c-6.6-1.4-11.2-1.3-16.4-0.3
	c-4.3,0.8-6.5,3.5-6.5,3.5s2,5.3,7.5,8.3c4.7,2.5,9.5,1.8,9.3,2.1c-0.3,0.7-5.2,1.3-10.2-0.7c-4-1.6-8.5-5.1-10.1-9.8
	c0.1-1.7,3.8-6.3,14-6.9c6.5-0.4,11.2-0.1,16.4,2.7C1597.5,336.2,1598.2,337.1,1597.5,337.6z"/>
<path id="XMLID_1148_" class="st2" d="M1595.9,322.1c2.3,0,4.5-0.3,5.5,0.6c2,1.7,0.6,5.2-6.3,5.6c-4.6,0.3-13.9-1.4-18.1-1.3
	c-10,0.4-14.8,1.4-18.2,2.5c0,0,3.1-6.5,13.8-7.5C1585.2,320.9,1589.1,322.2,1595.9,322.1z"/>
<path id="XMLID_3069_" class="st11" d="M382.4,994.4c-1.2-0.2-2.4,0-3.5,0.5c-1.8,0.9-3.3,1.9-5,1.9c-1.6,0-3.2-1-5-1.9
	c-1.1-0.5-2.3-0.7-3.5-0.5c-0.1,0-0.1,0.2,0,0.2c3.1,0.3,4.7,3,7.6,3.9c0.6,0.2,1.2,0.2,1.9,0c2.9-0.8,4.5-3.5,7.6-3.9
	C382.5,994.6,382.5,994.5,382.4,994.4z"/>
<path id="XMLID_3063_" class="st11" d="M381.8,994.7c0.6-0.1,1.5-0.2,2.6-0.7c1.2-0.5,2.6-2.6,0.4-3.1c-1.8-0.4-3,0.7-3.7,1.7
	c-0.6,0.7-0.8,1.6-1.8,2.2L381.8,994.7z"/>
<path id="XMLID_3062_" class="st11" d="M366.1,994.7c-0.6-0.1-1.5-0.2-2.6-0.7c-1.2-0.5-2.6-2.6-0.4-3.1c1.8-0.4,3,0.7,3.7,1.7
	c0.6,0.7,0.8,1.6,1.8,2.2L366.1,994.7z"/>
<path id="XMLID_3027_" class="st0" d="M392.6,967c0,0,0.7-13.7,13.3-17.2c12.6-3.5,20.7,6.6,20.7,6.6s0.1,13.1-13.7,16.9
	C400.2,976.8,392.6,967,392.6,967z"/>
<path id="XMLID_3021_" class="st13" d="M392.1,966.3c0,0-2.8-8.6-1.1-14c1.7-5.4,9.5-14.4,22.8-12c13.3,2.4,14.7,15.9,14.7,15.9
	s-8.2-10.1-22.5-6.4C394.5,952.7,392.1,966.3,392.1,966.3z"/>
<path id="XMLID_3020_" class="st15" d="M392.6,967c0.9,0.2,1.2-6.3,6.4-10.9c4-3.7,12.2-5.9,18.5-3.5c5.5,2.2,7.4,4.9,7.4,4.9
	s-0.3,6.1-5,11c-4,4.1-9.2,5-9,5.3c0.5,0.7,5.8-0.3,10.3-4.1c3.6-3,7.1-8.1,7.2-13.5c-0.5-3.1-10-10.1-19.4-8.3
	c-9.4,1.9-14,7-15.7,11.7C391.7,964.4,391.7,966.7,392.6,967z"/>
<circle id="XMLID_3018_" class="st12" cx="407.7" cy="963.1" r="9.8"/>
<path id="XMLID_3017_" class="st14" d="M402.9,963.1c0-2.7,2.2-4.8,4.8-4.8c2.7,0,4.8,2.2,4.8,4.8c0,2.7-2.2,4.8-4.8,4.8
	C405.1,967.9,402.9,965.8,402.9,963.1z"/>
<path id="XMLID_3015_" class="st0" d="M409.2,960.1c0-1.3,1.1-2.4,2.4-2.4c1.3,0,2.4,1.1,2.4,2.4c0,1.3-1.1,2.4-2.4,2.4
	C410.2,962.5,409.2,961.4,409.2,960.1z"/>
<path id="XMLID_3011_" class="st2" d="M386.9,944.3c-2.3,1.1-4.6,0.7-5.2,2.1c-1.1,2.7,2.1,6.6,9.1,3.6c4.7-2,13.3-8.7,17.3-11.1
	c8.6-5.2,15-7.1,19.7-5.4c0,0-6.6-5.9-17.8-1.6C397,936.9,393.7,941.2,386.9,944.3z"/>
<path id="XMLID_3010_" class="st0" d="M354.1,965.1c0,0-2.2-13.5-15.1-15.7c-12.9-2.1-19.9,8.8-19.9,8.8s1.3,13,15.4,15.3
	C347.6,975.7,354.1,965.1,354.1,965.1z"/>
<path id="XMLID_3000_" class="st13" d="M354.5,964.3c0,0,1.1-6.5-1.2-11.7c-2.3-5.2-10.6-12.6-23.6-8.8c-13,3.8-12.5,14.5-12.5,14.5
	s5.2-9.2,19.9-7.1C348.8,952.7,354.5,964.3,354.5,964.3z"/>
<circle id="XMLID_2999_" class="st12" cx="338.6" cy="963.1" r="9.8"/>
<path id="XMLID_2998_" class="st14" d="M343.4,963.1c0-2.7-2.2-4.8-4.8-4.8c-2.7,0-4.8,2.2-4.8,4.8c0,2.7,2.2,4.8,4.8,4.8
	C341.3,967.9,343.4,965.8,343.4,963.1z"/>
<path id="XMLID_2997_" class="st0" d="M337.2,960.1c0-1.3-1.1-2.4-2.4-2.4s-2.4,1.1-2.4,2.4c0,1.3,1.1,2.4,2.4,2.4
	S337.2,961.4,337.2,960.1z"/>
<path id="XMLID_2996_" class="st15" d="M354.1,965.1c-0.9,0.3-1.8-3.6-7.5-7.7c-4.4-3.2-10-4.8-17.8-2.9c-5.8,1.4-7.8,4.6-7.8,4.6
	s0.9,6.1,6.2,10.4c4.4,3.7,9.7,3.9,9.5,4.3c-0.5,0.7-5.8,0.3-10.7-2.9c-3.9-2.6-7.9-7.3-8.6-12.6c0.2-3.2,8.4-9.9,18-9.1
	c9.6,0.8,13.1,4.2,16.7,9.6C354.7,963,355,964.7,354.1,965.1z"/>
<path id="XMLID_2994_" class="st13" d="M373.7,1012l-21.4,1.1c0,0,6,11.6,21.4,11.6c15.4,0,21.4-11.5,21.4-11.5L373.7,1012z"/>
<path id="XMLID_2993_" class="st7" d="M382.2,1008.7c-3.7-1.1-6.7,0.8-8.5,0.8s-4.8-1.9-8.5-0.8c-3.7,1.1-15.3,4.6-14.2,5.2
	c2.8,1.3,8.8-0.9,22.8-0.5c14-0.5,20,1.7,22.8,0.5C397.5,1013.3,385.9,1009.8,382.2,1008.7z"/>
<path id="XMLID_2992_" class="st7" d="M373.7,1022.8c-9,0-13.4-1.7-13.4-1.7c1.2,2.9,5.5,4.7,13.4,4.7c7.9,0,12.2-1.8,13.4-4.7
	C387.1,1021.1,382.7,1022.8,373.7,1022.8z"/>
<path id="XMLID_2990_" class="st2" d="M355.8,938.9c2.5,0,4.4-1.3,5.5-0.4c2.2,1.9,1,6.7-6.5,7.1c-5,0.3-15.5-2-20-2.4
	c-9.8-1-16.3,0.2-19.8,3.7c0,0,3.3-8,15-9.1C343.7,936.7,348.4,939,355.8,938.9z"/>
<g>
	<g>
		<path class="st2" d="M1582.5,269.1c8,2,14.8,6.8,21.3,11.6c7,5.2,14,10.4,21.2,15.4c14.7,10,29.9,19.3,45.6,27.6
			c8.8,4.7,17.8,9.1,26.9,13.2c1.2,0.6,2.7,0.4,3.4-0.9c0.6-1.1,0.3-2.9-0.9-3.4c-16.3-7.4-32.1-15.6-47.5-24.8
			c-15.3-9.1-30-19.1-44.2-29.9c-7.5-5.7-15.2-11.3-24.5-13.7C1580.7,263.5,1579.4,268.3,1582.5,269.1L1582.5,269.1z"/>
	</g>
</g>
<path class="st2" d="M1021.7,800.1c10.6,6.7,16.2,18.8,26.6,26c3.7,2.6,7.9,4.4,11.6,6.9c6.8,4.6,11.8,11.4,14,19
	c3.8,12.9-0.4,27.7,6.7,39.3c2.9,4.8,8.4,31.3,9.2,41.3c0.5,6.2,11.6,44.7,10.4,50.8c-8.4,43.8-54.8,23.5-59.5,29.1
	c-3.3,3.9-14.5-0.5-19.4,1.4c-7.2,2.9,4.4-4.6-3-7c-5.9-1.9,20.7-32,16.1-35.9c-9.3-7.9-10.3-21.1-11.1-32.8
	c-0.8-11.7-2.1-23.5-3.8-35.1c-0.9-6.4-2-12.8-4.6-18.7c-4.2-9.7-12-17.6-16.5-27.1c-4.7-10-5.6-21.1-6.3-32
	c-0.4-6.3-4.6-24.3,0.6-28.4C999.5,791.4,1015.7,796.3,1021.7,800.1z"/>
<path class="st2" d="M1027.6,815.3c-0.6-7-1.6-14.3-6.1-19.7c-5.5-6.6-14.8-8.5-23.4-8.5c-9.8-0.1-19.6,1.6-28.8,5
	c-4.6,1.7-9.2,3.8-12.8,7.1c-4.6,4.1-7.6,9.8-11.4,14.6c-11.1,14.2-29.3,22.3-37.2,38.5c-6.9,14.1-9.3,32.1-13.3,47.4
	c-2.7,10.1-22.6,65.5-22,75.9c1.3,23.1,21.4,26.1,28.3,26.8c97.7,9.2,42.6,7.7,47.5,8.8c10.8,2.4-8.1-62.6-0.2-70.6
	c12.7-12.8,22-29.3,37.1-39.1c7.7-5,16.7-8.1,23.8-13.9C1029.4,870.9,1029.5,839.2,1027.6,815.3z"/>
<path class="st6" d="M1043.1,1081.6c0,0-10.1,44.7-60.6,44.7c-50.5,0-53.9-44.7-53.9-44.7s6.7-6.9,13.5-24.1
	c4.3-10.9,8.6-28.8,11.1-40.3c1.5-6.7,2.4-11.3,2.4-11.3h60.6c0,0,0.8,4.2,2,10.8c1.3,6.9,3,16.5,4.7,27
	C1026.3,1064.4,1043.1,1081.6,1043.1,1081.6z"/>
<path class="st5" d="M1018.2,1016.8c-2.6,8.5-7.1,16.3-13.2,22.6c-2.5,2.5-5.2,4.8-8.3,6.4c-10.6,5.2-23.9,0.5-32-8.2
	c-5.4-5.8-8.8-12.9-11.5-20.3c-0.2-0.7-0.5-1.3-0.7-2c-1.3-3.8-3.5-7.4-0.3-9.3c1.9-1.1,8.1-0.2,11.7,0c0.7,0.1,1.4,0.1,1.9,0.1
	c0.2,0,0.4,0,0.8-0.1h49.7C1016.2,1006,1017,1010.1,1018.2,1016.8z"/>
<path class="st6" d="M1056.6,955.5c-0.2,1-0.5,2.1-0.7,3.2c-6.2,25.6-21.2,50.2-42,62.9c-22.1,13.5-48.8,7.8-67.2-10.9
	c-14.9-15.2-24.8-37.5-29.2-60.6c-2.3-11.7-3.2-23.8-2.6-35.2c1.9-38.7,19.8-81.5,53.4-95.6c8.3-3.5,17.6-5.3,26.9-5.1
	c11,0.3,21.9,3.5,30.8,10.4c12.7,9.7,21.8,24.6,27,40.8C1061.8,893.3,1062.7,926.8,1056.6,955.5z"/>
<g>
	<path class="st2" d="M1016.6,848.5c-1.4,8.4-12.3,36.7-12.7,37.6c-0.6,1.4-16.1,1.2-17.6,1.3c-21.6,2-34.4,1.2-56,3.3
		c-1.6-6.4-0.7-22.9,12-57.2c0,0-17.3,19.7-18.4,49.8c-7.5,0.7-15,1.4-22.6,2.1c-2.8-21.1,8.8-41.5,23.1-57.3
		c15.7-17.4,35.7-31.5,58.5-37.2c6.1-1.5,12.7-2.4,18.7-0.4c15.2,5.1,28.4,28,23.7,39.7C1022.5,837.3,1017.8,841,1016.6,848.5z"/>
	<path class="st2" d="M1016.9,838.5c5.6,12.7,1.9,31.9,1.3,45.7c15.8,7.4,44.7,7.6,60.5,15c2-25.7-5.5-52-20.7-72.8
		c-8.8-12.1-22.8-25.8-38.1-28.8C1001.8,794.1,1013.3,830.5,1016.9,838.5z"/>
</g>
<g>
	<path class="st7" d="M957.5,961.1c4.4,7.9,2.2,17.5-4.9,21.5c-7.1,4-16.4,0.9-20.9-7c-4.4-7.9-4.6-21.7,2.5-25.7
		C941.3,945.8,953.1,953.2,957.5,961.1z"/>
</g>
<g>
	<path class="st7" d="M1018.9,961.1c-4.4,7.9-2.2,17.5,4.9,21.5c7.1,4,16.4,0.9,20.9-7c4.4-7.9,4.6-21.7-2.5-25.7
		C1035.1,945.8,1023.3,953.2,1018.9,961.1z"/>
</g>
<g>
	<path class="st2" d="M908.8,842.3c-11.6-2.9-24.3-6.9-30.1-17.3c-2.6-4.6-3.5-10-3.5-15.2c0-13,5.5-26,15-34.9
		c9.5-8.9,23-13.7,36-12.5c7.4,0.7,14.8,3.3,20.2,8.5c3.5,3.3,5.9,7.5,8,11.8c3.2,6.8,5.4,14.2,5.3,21.7c-0.2,14-8.5,27-19.9,35.2
		c-11.4,8.2-25.5,11.9-39.5,13.1c-5,0.4-31.3-18.4-36.8-27.5c-9-15-9.4-26.7,0.7-41c10-14.3,7.6-12.2,24.1-18.2
		c-10.9,14.1-18,15.5-16.9,33.2c0.9,15.4,12.2,24,27.2,28.3"/>
</g>
<g>
	<path class="st2" d="M1046.1,825.3c-18.4-13.8-10-25.5-1.9-36.4c0.9-1.2,0.3-2.9,1.1-4.2c1-1.6,2.8-2.4,4.5-3.2
		c8-3.3,16.6-5,25.3-5.1c4.7,0,9.6,0.5,14,2.1c10.3,3.8,17.4,13.4,21.9,23.4c6.2,13.7,8.5,29.8,2.6,43.6s-21.3,23.9-35.9,20.6
		c-8.2-1.9-15.2-7.5-23.4-9.6"/>
</g>
<path id="XMLID_3747_" class="st2" d="M356.7,331.5c-1.5,2.7-8.6-2.6-18.6-2.4c-10,0.2-17.3,4.4-20.9,8.6c0,0,3.1-9.6,16.9-13.7
	S358.7,328,356.7,331.5z"/>
<path id="XMLID_3745_" class="st2" d="M393.3,330.7c1.5,2.7,8.6-2.6,18.6-2.4c10,0.2,17.3,4.4,20.9,8.6c0,0-3.1-9.6-16.9-13.7
	C402.2,319,391.4,327.1,393.3,330.7z"/>
<path id="XMLID_3695_" class="st11" d="M384.2,386.3c-1.1-0.2-2.4,0-3.4,0.5c-1.7,0.9-3.3,1.9-4.9,1.9c-1.6,0-3.1-1-4.9-1.9
	c-1-0.5-2.3-0.6-3.4-0.5c-0.1,0-0.1,0.1,0,0.2c3,0.3,4.6,3,7.4,3.8c0.6,0.2,1.2,0.2,1.8,0c2.8-0.8,4.4-3.5,7.4-3.8
	C384.3,386.4,384.2,386.3,384.2,386.3z"/>
<path id="XMLID_3691_" class="st11" d="M383.6,386.5c0.6-0.1,1.5-0.2,2.6-0.7c1.2-0.5,2.5-2.6,0.4-3.1c-1.8-0.4-2.9,0.7-3.7,1.6
	c-0.6,0.7-0.8,1.6-1.7,2.1L383.6,386.5z"/>
<path id="XMLID_3690_" class="st11" d="M368.2,386.5c-0.6-0.1-1.5-0.2-2.6-0.7c-1.2-0.5-2.5-2.6-0.4-3.1c1.8-0.4,2.9,0.7,3.7,1.6
	c0.6,0.7,0.8,1.6,1.7,2.1L368.2,386.5z"/>
<path id="XMLID_3642_" class="st0" d="M356.7,357.5c0,0-2.2-13.3-14.8-15.3c-12.6-2.1-19.5,8.6-19.5,8.6s1.3,12.7,15.1,15
	C350.4,367.9,356.7,357.5,356.7,357.5z"/>
<path id="XMLID_3637_" class="st5" d="M357.2,356.8c0,0,1.8-8.7-0.4-13.8c-2.3-5.1-10.7-13-23.5-9.3c-12.7,3.7-12.6,17.1-12.6,17.1
	s6.9-10.7,21.3-8.6C353.4,343.8,357.2,356.8,357.2,356.8z"/>
<circle id="XMLID_3636_" class="st12" cx="341.5" cy="353.5" r="9.6"/>
<path id="XMLID_3633_" class="st14" d="M336.8,353.5c0-2.6,2.1-4.7,4.7-4.7s4.7,2.1,4.7,4.7c0,2.6-2.1,4.7-4.7,4.7
	S336.8,356.1,336.8,353.5z"/>
<path id="XMLID_3632_" class="st0" d="M342.4,350.6c0-1.3,1-2.3,2.3-2.3s2.3,1,2.3,2.3s-1,2.3-2.3,2.3S342.4,351.9,342.4,350.6z"/>
<path id="XMLID_3630_" class="st15" d="M356.7,357.5c-0.8,0.3-1.8-6-7.4-10c-4.3-3.1-12.5-4.5-18.4-1.4c-5.2,2.7-6.7,5.5-6.7,5.5
	s0.9,6,6.1,10.2c4.4,3.6,9.5,3.9,9.3,4.2c-0.4,0.7-5.7,0.3-10.5-2.9c-3.9-2.5-7.8-7.1-8.4-12.4c0.2-3.1,8.7-10.9,18.1-10.1
	c9.4,0.8,14.4,5.3,16.5,9.8C357.3,354.9,357.6,357.2,356.7,357.5z"/>
<path id="XMLID_3626_" class="st0" d="M395.1,357.5c0,0,2.2-13.3,14.8-15.3c12.6-2.1,19.5,8.6,19.5,8.6s-1.3,12.7-15.1,15
	C401.4,367.9,395.1,357.5,395.1,357.5z"/>
<path id="XMLID_3620_" class="st5" d="M394.6,356.8c0,0-1.8-8.7,0.4-13.8c2.3-5.1,10.7-13,23.5-9.3c12.7,3.7,12.6,17.1,12.6,17.1
	s-6.9-10.7-21.3-8.6C398.4,343.8,394.6,356.8,394.6,356.8z"/>
<circle id="XMLID_3619_" class="st12" cx="410.3" cy="353.5" r="9.6"/>
<path id="XMLID_3617_" class="st14" d="M405.5,353.5c0-2.6,2.1-4.7,4.7-4.7c2.6,0,4.7,2.1,4.7,4.7c0,2.6-2.1,4.7-4.7,4.7
	C407.6,358.2,405.5,356.1,405.5,353.5z"/>
<circle id="XMLID_3616_" class="st0" cx="414" cy="350.6" r="2.3"/>
<path id="XMLID_3612_" class="st15" d="M395.1,357.5c0.8,0.3,1.8-6,7.4-10c4.3-3.1,12.5-4.5,18.4-1.4c5.2,2.7,6.7,5.5,6.7,5.5
	s-0.9,6-6.1,10.2c-4.4,3.6-9.5,3.9-9.3,4.2c0.4,0.7,5.7,0.3,10.5-2.9c3.9-2.5,7.8-7.1,8.4-12.4c-0.2-3.1-8.7-10.9-18.1-10.1
	c-9.4,0.8-14.4,5.3-16.5,9.8C394.5,354.9,394.2,357.2,395.1,357.5z"/>
<path id="XMLID_3606_" class="st13" d="M375.9,404.1l-20.9-0.5c0,0,6.8,14.4,20.9,14.4c14.1,0,20.7-14.3,20.7-14.3L375.9,404.1z"/>
<path id="XMLID_3605_" class="st7" d="M375.9,401.6c1.8,0,4.7-1.9,8.3-0.7c3.6,1.1,12.8,0.9,14,1.2c1.1,0.2-0.3,3.4-22.3,3.4
	c-22,0-23.4-3.2-22.3-3.4c1.1-0.2,10.3,0,14-1.2C371.2,399.7,374.1,401.6,375.9,401.6z"/>
<path id="XMLID_3604_" class="st7" d="M375.9,416.6c-8.8,0-13.2-3.6-13.2-3.6c1.2,2.9,5.4,6.5,13.2,6.5c7.7,0,11.9-3.7,13.2-6.5
	C389.1,413,384.7,416.6,375.9,416.6z"/>
<g>
	<path id="XMLID_7_" class="st11" d="M994.6,365.8c-1.1-0.2-2.2,0-3.2,0.5c-1.6,0.8-3.1,1.7-4.6,1.7s-2.9-0.9-4.6-1.7
		c-1-0.5-2.2-0.6-3.2-0.5c0,0-0.1,0.1,0,0.1c2.8,0.3,4.3,2.8,7,3.6c0.6,0.1,1.1,0.1,1.7,0c2.6-0.8,4.1-3.3,7-3.6
		C994.7,365.9,994.7,365.8,994.6,365.8z"/>
	<path id="XMLID_6_" class="st11" d="M994.1,366c0.6-0.1,1.4-0.2,2.4-0.6c1.1-0.5,2.4-2.4,0.4-2.9c-1.7-0.4-2.8,0.7-3.5,1.5
		c-0.5,0.7-0.7,1.5-1.6,2L994.1,366z"/>
	<path id="XMLID_3_" class="st11" d="M979.6,366c-0.6-0.1-1.4-0.2-2.4-0.6c-1.1-0.5-2.4-2.4-0.4-2.9c1.7-0.4,2.8,0.7,3.5,1.5
		c0.5,0.7,0.7,1.5,1.6,2L979.6,366z"/>
</g>
<path id="XMLID_948_" class="st11" d="M993.7,966.1c-1.1-0.2-2.3,0-3.3,0.5c-1.7,0.8-3.1,1.8-4.7,1.8s-3-1-4.7-1.8
	c-1-0.5-2.2-0.6-3.3-0.5c0,0-0.1,0.1,0,0.2c2.9,0.3,4.4,2.9,7.1,3.6c0.6,0.2,1.2,0.2,1.8,0c2.7-0.8,4.2-3.3,7.1-3.6
	C993.8,966.2,993.8,966.1,993.7,966.1z"/>
<path id="XMLID_947_" class="st11" d="M993.2,966.3c0.6-0.1,1.4-0.2,2.5-0.7c1.1-0.5,2.4-2.5,0.4-3c-1.7-0.4-2.8,0.7-3.5,1.6
	c-0.6,0.7-0.8,1.5-1.7,2.1L993.2,966.3z"/>
<path id="XMLID_946_" class="st11" d="M978.3,966.3c-0.6-0.1-1.4-0.2-2.5-0.7c-1.1-0.5-2.4-2.5-0.4-3c1.7-0.4,2.8,0.7,3.5,1.6
	c0.6,0.7,0.8,1.5,1.7,2.1L978.3,966.3z"/>
<path id="XMLID_944_" class="st2" d="M968.6,906.9c-0.5,3.3-9.5,0.5-19.5,4.3c-7.7,2.9-12.9,7.7-15.9,12.3c-0.5,0.7-1.5,0.2-1.3-0.6
	c1.1-4,3.2-10.6,11.2-15.3C956.4,899.8,969.3,902.6,968.6,906.9z"/>
<path id="XMLID_925_" class="st13" d="M1000.3,938.3c0,0,1.5-8.2,4.5-12.7c3-4.5,10.4-10.9,21.9-5.4c11.5,5.6,9.3,18.2,9.3,18.2
	s-3.7-7.5-17.7-7.9C1007.1,930.2,1000.3,938.3,1000.3,938.3z"/>
<path id="XMLID_924_" class="st15" d="M1000.7,938.5c1.2-0.2,2.4-1.5,8.6-3.7c5.5-1.9,9.1-1.8,14.1-0.5c5,1.3,7.7,3.6,9.9,5.7
	c1.6,1.5,3.8,2.6,2.6-1.5c-1.2-4.1-6.9-9.4-14.9-10.1c-8.1-0.7-12.9,0.9-17.8,5.5C999.9,937,999.8,938.7,1000.7,938.5z"/>
<path id="XMLID_922_" class="st15" d="M1033.2,934.1c0,0,2.3,1.6,3.9,1.6c3.2,0,3.1-2.2,3.7-1.2c0.6,1-0.8,4.8-5.4,5L1033.2,934.1z"
	/>
<path id="XMLID_918_" class="st13" d="M971.2,938.3c0,0-1.5-8.2-4.5-12.7c-3-4.5-10.4-10.9-21.9-5.4c-11.5,5.6-9.3,18.2-9.3,18.2
	s3.7-7.5,17.7-7.9C964.4,930.2,971.2,938.3,971.2,938.3z"/>
<path id="XMLID_917_" class="st15" d="M970.8,938.5c-1.2-0.2-2.4-1.5-8.6-3.7c-5.5-1.9-9.1-1.8-14.1-0.5c-5,1.3-7.7,3.6-9.9,5.7
	c-1.6,1.5-3.8,2.6-2.6-1.5c1.2-4.1,6.9-9.4,14.9-10.1c8.1-0.7,12.9,0.9,17.8,5.5C971.7,937,971.7,938.7,970.8,938.5z"/>
<path id="XMLID_915_" class="st15" d="M938.3,934.1c0,0-2.3,1.6-3.9,1.6c-3.2,0-3.1-2.2-3.7-1.2c-0.6,1,0.8,4.8,5.4,5L938.3,934.1z"
	/>
<path id="XMLID_913_" class="st2" d="M1002.9,906.9c0.5,3.3,9.5,0.5,19.5,4.3c7.7,2.9,12.9,7.7,15.9,12.3c0.5,0.7,1.5,0.2,1.3-0.6
	c-1.1-4-3.2-10.6-11.2-15.3C1015.2,899.8,1002.2,902.6,1002.9,906.9z"/>
<path id="XMLID_912_" class="st12" d="M985.7,981.3l-20.7,0.5c0,0,4,10.8,20.7,10.8c16.7,0,20.7-10.8,20.7-10.8L985.7,981.3z"/>
<path id="XMLID_911_" class="st0" d="M1002.5,987c-1.9-1.6-1.1-3.6-0.8-4.9l-15.9-0.7l-15.9,0.7c0.3,1.4,1.1,3.4-0.8,4.9
	c-1.2,1,16.6,6.9,16.7,6.9C985.8,993.9,1003.7,988,1002.5,987z"/>
<path id="XMLID_910_" class="st13" d="M1005.5,982.1c-1.5,2.9-3.6,8-19.7,8.1c-16.2-0.1-18.3-5.2-19.7-8.1c-0.4-0.7-2.4-0.4-2.4-0.4
	s2.8,16,22.2,17.6c19.4-1.6,22.2-17.6,22.2-17.6S1005.8,981.4,1005.5,982.1z"/>
<path id="XMLID_909_" class="st7" d="M1009.4,979.9c-3.4,1.4-10.5-1.4-14.6-1.9c-4.8-0.6-7.2,2-9.1,2c-1.9,0-4.3-2.6-9.1-2
	c-4.1,0.5-11.2,3.3-14.6,1.9c-1.2-0.5-2.4,1.6,5.7,2.7c3.5,0.5,11.3,1.2,17.9,1.2c6.6,0,14.4-0.7,17.9-1.2
	C1011.7,981.5,1010.5,979.4,1009.4,979.9z"/>
<path id="XMLID_908_" class="st7" d="M985.8,998.1c-8.5,0-12.7-3.5-12.7-3.5c1.2,2.7,5.2,6.3,12.7,6.3c7.5,0,11.5-3.6,12.7-6.3
	C998.4,994.6,994.3,998.1,985.8,998.1z"/>
<g>
	<path class="st2" d="M921.1,883.6c1,25.4-2.2,50.9-9.4,75.3c-1.2,4-3.2,8.6-7.3,9.4c-3,0.5-6-1.4-7.5-4c-1.6-2.6-2-5.7-2.3-8.7
		c-2.2-22.4,2.7-45.5,13.9-65.1c2.3-4,5.5-8.3,10.1-8.7"/>
</g>
<g>
	<path class="st2" d="M1062.7,878.9c12,25.2,19.4,52.6,21.9,80.6c0.4,4.6,0.2,10.2-4.1,12.9c-3.1,1.9-7.2,1.4-10.1-0.5
		c-2.9-1.9-4.7-4.8-6.3-7.7c-12.1-21.6-16.6-47.3-12.5-72.4c0.8-5.2,2.5-11,7.5-13.6"/>
</g>
<path class="st8" d="M1654.1,1070.2c0,0-9.6,42.5-57.6,42.5c-48,0-51.2-42.5-51.2-42.5s6.4-6.5,12.8-22.9
	c4.1-10.4,8.1-27.3,10.5-38.3c1.4-6.3,2.3-10.7,2.3-10.7h57.6c0,0,0.8,4,1.9,10.3c1.2,6.6,2.8,15.7,4.5,25.7
	C1638,1053.9,1654.1,1070.2,1654.1,1070.2z"/>
<path class="st5" d="M1630.4,1008.6c-2.5,8-6.8,15.5-12.6,21.4c-2.3,2.4-4.9,4.6-7.9,6.1c-10.1,5-22.7,0.5-30.4-7.8
	c-5.1-5.5-8.4-12.3-10.9-19.3c-0.2-0.7-0.4-1.3-0.7-1.9c-1.2-3.6-3.4-7-0.3-8.8c1.8-1.1,7.6-0.2,11.1,0c0.7,0.1,1.3,0.1,1.8,0.1
	c0.2,0,0.4,0,0.8-0.1h47.2C1628.4,998.3,1629.2,1002.3,1630.4,1008.6z"/>
<g>
	<path class="st2" d="M1589.9,786.3c-8.9-2.6-18.6-0.2-27,3.6s-16.1,9.2-24.5,12.9c-5.7,2.5-11.8,4.3-16.5,8.3
		c-5.1,4.2-8.1,10.5-9.4,16.9c-1.5,7.1-1.1,14.6-3.9,21.3c-3.2,7.5-9.9,12.9-14.6,19.6c-6.1,8.7-8.6,19.7-7,30.1
		c1.3,8.1,5.1,16.1,3.7,24.2c-1.3,7.4-6.9,13.7-7.9,21.2c-1.2,9.3,4.9,18,12.1,24.2c7.2,6.2,15.7,11,22,18c4.7,5.2,8.5,12,15.3,14
		c7,2.2,15.4-1.4,21.8,2.2c3.6,2,5.9,6.1,9.7,7.7c5.6,2.4,12.4-1.5,15.2-6.9c2.8-5.4,2.6-11.6,2.7-17.6c0-15.9,1.6-31.9,4.6-47.5
		c1.5-8,3.5-16,3.4-24.1c0-8.7-2.3-17.2-4-25.7c-2.5-12.5-3.6-25.8,1.5-37.5c3-6.9,8-12.8,10.8-19.8
		C1603.6,816.6,1611.3,792.5,1589.9,786.3z"/>
	<path class="st2" d="M1615.5,786.3c8.9-2.6,18.6-0.2,27,3.6s16.1,9.2,24.5,12.9c5.7,2.5,11.8,4.3,16.5,8.3
		c5.1,4.2,8.1,10.5,9.4,16.9c1.5,7.1,1.1,14.6,3.9,21.3c3.2,7.5,9.9,12.9,14.6,19.6c6.1,8.7,8.6,19.7,7,30.1
		c-1.3,8.1-5.1,16.1-3.7,24.2c1.3,7.4,6.9,13.7,7.9,21.2c1.2,9.3-4.9,18-12.1,24.2c-7.2,6.2-15.7,11-22,18c-4.7,5.2-8.5,12-15.3,14
		c-7,2.2-15.4-1.4-21.8,2.2c-3.6,2-5.9,6.1-9.7,7.7c-5.6,2.4-12.4-1.5-15.2-6.9c-2.8-5.4-2.6-11.6-2.7-17.6
		c0-15.9-1.6-31.9-4.6-47.5c-1.5-8-3.5-16-3.4-24.1c0-8.7,2.3-17.2,4-25.7c2.5-12.5,3.6-25.8-1.5-37.5c-3-6.9-8-12.8-10.8-19.8
		C1601.8,816.6,1594.1,792.5,1615.5,786.3z"/>
</g>
<path class="st8" d="M1666.5,950.4c-0.2,1-0.4,2-0.7,3c-5.8,24.3-20,47.7-39.6,59.8c-20.8,12.8-46,7.4-63.3-10.4
	c-14.1-14.5-23.3-35.6-27.5-57.5c-2.2-11.2-3-22.6-2.5-33.4c1.8-36.8,18.7-77.5,50.3-90.8c7.8-3.3,16.6-5.1,25.3-4.8
	c10.3,0.3,20.6,3.3,29,9.9c12,9.3,20.5,23.3,25.4,38.8C1671.5,891.2,1672.3,923.1,1666.5,950.4z"/>
<g>
	<path class="st7" d="M1570.2,960.4c4.1,7.4,2.1,16.3-4.6,20.1c-6.7,3.7-15.4,0.8-19.5-6.5s-4.3-20.3,2.3-24.1
		S1566,953.1,1570.2,960.4z"/>
</g>
<g>
	<path class="st7" d="M1631.9,960.4c-4.1,7.4-2.1,16.3,4.6,20.1c6.7,3.7,15.4,0.8,19.5-6.5s4.3-20.3-2.3-24.1
		C1647,946.1,1636,953.1,1631.9,960.4z"/>
</g>
<g>
	<path class="st2" d="M1627.1,844.9c-8.3,12.4-21.2,21.8-35.6,25.9c-23,6.6-50.9,0.9-68.7,16.9c11.6-4.6,23.2-9.1,34.8-13.7
		c14.1-5.6,28.6-11.4,39.8-21.6c11.2-10.2,18.8-25.9,15-40.7"/>
</g>
<path id="XMLID_850_" class="st2" d="M1616.4,889.8c3.8,4.3,9.6,5.3,20.1,8.1c9.2,2.4,15.3,5.5,18.6,10.4c0.4,0.5,1.2,0.2,1.1-0.4
	c-0.6-3.4-2.9-7.6-12.1-13c-7.3-4.3-12.5-4.5-21.2-8.5C1619,884.5,1612.5,885.4,1616.4,889.8z"/>
<path id="XMLID_849_" class="st2" d="M1581.1,889.8c-3.8,4.3-9.6,5.3-20.1,8.1c-9.2,2.4-15.3,5.5-18.6,10.4
	c-0.4,0.5-1.2,0.2-1.1-0.4c0.6-3.4,2.9-7.6,12.1-13c7.3-4.3,12.5-4.5,21.2-8.5C1578.5,884.5,1585,885.4,1581.1,889.8z"/>
<path id="XMLID_828_" class="st11" d="M1607.1,956.9c-1.1-0.2-2.4,0-3.5,0.5c-1.8,0.9-3.3,1.9-4.9,1.9c-1.6,0-3.1-1-4.9-1.9
	c-1.1-0.5-2.3-0.6-3.5-0.5c-0.1,0-0.1,0.2,0,0.2c3,0.3,4.6,3,7.5,3.8c0.6,0.2,1.2,0.2,1.8,0c2.8-0.8,4.4-3.5,7.5-3.8
	C1607.2,957.1,1607.1,956.9,1607.1,956.9z"/>
<path id="XMLID_827_" class="st11" d="M1606.5,957.2c0.6-0.1,1.5-0.2,2.6-0.7c1.2-0.5,2.6-2.6,0.4-3.1c-1.8-0.4-3,0.7-3.7,1.6
	c-0.6,0.7-0.8,1.6-1.7,2.1L1606.5,957.2z"/>
<path id="XMLID_826_" class="st11" d="M1591,957.2c-0.6-0.1-1.5-0.2-2.6-0.7c-1.2-0.5-2.6-2.6-0.4-3.1c1.8-0.4,3,0.7,3.7,1.6
	c0.6,0.7,0.8,1.6,1.7,2.1L1591,957.2z"/>
<path id="XMLID_808_" class="st12" d="M1598.7,970.7c-7.3,0-22.5,9.6-22.5,9.6s9.3,5.5,22.5,5.5c13.1,0,22.5-5.5,22.5-5.5
	S1605.9,970.7,1598.7,970.7z"/>
<path id="XMLID_807_" class="st16" d="M1598.7,978.8c-8.5,0-12.6,2.2-12.6,2.2l12.6,2.6l12.6-2.6
	C1611.3,981,1607.2,978.8,1598.7,978.8z"/>
<path id="XMLID_806_" class="st0" d="M1583.6,975.8c0,0,8.4-0.7,15.2-0.7c6.7,0,15.2,0.7,15.2,0.7s-3-5.1-15.2-5.1
	S1583.6,975.8,1583.6,975.8z"/>
<path id="XMLID_805_" class="st13" d="M1621.2,980.3c-15,0-17.1,1.4-22.5,1.4c-5.4,0-7.5-1.4-22.5-1.4c0,0,5.7,10.7,22.5,10.7v0
	c0,0,0,0,0,0l0,0v0C1615.5,991.1,1621.2,980.3,1621.2,980.3z"/>
<path id="XMLID_804_" class="st7" d="M1607.1,967.4c-3.6-1.1-6.6,0.8-8.4,0.8s-4.8-1.9-8.4-0.8c-3.6,1.1-15.1,12.4-14.1,12.9
	c2.8,1.3,8.7-8,22.5-7.5c13.8-0.5,19.7,8.8,22.5,7.5C1622.3,979.8,1610.8,968.5,1607.1,967.4z"/>
<path id="XMLID_803_" class="st7" d="M1598.7,990.6c-8.9,0-13.3-3-13.3-3c1.2,2.9,10,4.6,13.3,4.6s12-1.8,13.3-4.6
	C1612,987.6,1607.6,990.6,1598.7,990.6z"/>
<path id="XMLID_799_" class="st13" d="M1614.1,929.7c0,0,1.4-8.6,4.5-13.3c3-4.7,10.7-11.6,22.8-6c12.1,5.6,10,18.9,10,18.9
	s-4-7.8-18.6-8C1621.1,921.2,1614.1,929.7,1614.1,929.7z"/>
<path id="XMLID_798_" class="st15" d="M1614.5,929.9c1.2-0.2,2.4-1.7,8.9-4c5.7-2,9.5-2,14.8-0.7c5.3,1.3,8.2,3.7,10.4,5.8
	c1.7,1.5,4,2.7,2.7-1.6c-1.3-4.3-7.3-9.7-15.8-10.3c-8.4-0.6-13.4,1.2-18.6,6C1613.6,928.4,1613.6,930.1,1614.5,929.9z"/>
<path id="XMLID_796_" class="st15" d="M1648.4,924.8c0,0,2.4,1.7,4.1,1.6c3.4-0.1,3.2-2.3,3.8-1.3c0.6,1.1-0.8,5-5.6,5.3
	L1648.4,924.8z"/>
<path id="XMLID_792_" class="st13" d="M1583.4,929.7c0,0-1.4-8.6-4.5-13.3c-3-4.7-10.7-11.6-22.8-6s-10,18.9-10,18.9s4-7.8,18.6-8
	C1576.4,921.2,1583.4,929.7,1583.4,929.7z"/>
<path id="XMLID_791_" class="st15" d="M1583,929.9c-1.2-0.2-2.4-1.7-8.9-4c-5.7-2-9.5-2-14.8-0.7c-5.3,1.3-8.2,3.7-10.4,5.8
	c-1.7,1.5-4,2.7-2.7-1.6c1.3-4.3,7.3-9.7,15.8-10.3c8.4-0.6,13.4,1.2,18.6,6C1583.9,928.4,1583.9,930.1,1583,929.9z"/>
<path id="XMLID_234_" class="st15" d="M1549,924.8c0,0-2.4,1.7-4.1,1.6c-3.4-0.1-3.2-2.3-3.8-1.3c-0.6,1.1,0.8,5,5.6,5.3L1549,924.8
	z"/>
<path id="XMLID_230_" class="st0" d="M1564.8,928.6c-0.6,2.3-1.8,5.3,0,5.7c1.8,0.5,2.6-3.2,1.4-5.4
	C1565,926.7,1564.8,928.6,1564.8,928.6z"/>
<g>
	<path class="st2" d="M1603.5,829.1c-0.3,3.2-0.8,6.5-2.4,9.3c-3.5,5.9-11.1,8.1-17.8,10.5c-11,4-21.8,10.9-26.2,21.3
		c-7.1,17.1,4.6,38.7-6.3,53.9c-3.1,4.3-7.8,7.4-11.1,11.6c-5.5,6.8-6.9,16.4-3.6,24.4c3,7.2,9.4,12.9,11.9,20.3
		c1.9,5.6,1.5,11.9-1.3,17.1c-2.8,5.3-7.8,9.6-9.2,15.4c-1.3,5.4,1.1,11.5,5.8,14.7c-12.2-1.7-21.8-13.4-20.7-25.1
		c0.7-7.2,4.9-13.9,4.5-21.1c-0.5-9.6-8.7-17.1-13.1-25.7c-4.2-8.3-4.9-18.1-1.8-26.8c2-5.6,5.4-10.8,6.4-16.7
		c1.5-8.7-2.6-17.3-4.7-25.8c-3.5-14.3-1.2-30.1,7.9-41.9c3.4-4.4,7.6-8.2,11-12.6c5.8-7.2,9.5-15.8,15.1-23.1
		c6.2-8.1,15.1-14.7,25.5-16.7c8.6-1.7,22.1,0.4,28.2,7.3C1607.7,806.3,1604.3,820.9,1603.5,829.1z"/>
	<path class="st2" d="M1601.9,829.1c0.3,3.2,0.7,6.5,2.3,9.3c3.3,5.9,10.6,8.1,16.9,10.5c10.5,4,20.8,10.9,24.9,21.3
		c6.8,17.1-4.4,38.7,6,53.9c3,4.3,7.4,7.4,10.5,11.6c5.2,6.8,6.6,16.4,3.4,24.4c-2.8,7.2-8.9,12.9-11.4,20.3
		c-1.9,5.6-1.4,11.9,1.2,17.1c2.7,5.3,7.4,9.6,8.8,15.4c1.3,5.4-1,11.5-5.5,14.7c11.6-1.7,20.8-13.4,19.7-25.1
		c-0.7-7.2-4.6-13.9-4.3-21.1c0.4-9.6,8.3-17.1,12.4-25.7c4-8.3,4.6-18.1,1.8-26.8c-1.9-5.6-5.1-10.8-6.1-16.7
		c-1.4-8.7,2.5-17.3,4.5-25.8c3.3-14.3,1.1-30.1-7.5-41.9c-3.2-4.4-7.2-8.2-10.5-12.6c-5.5-7.2-9-15.8-14.4-23.1
		c-5.9-8.1-14.4-14.7-24.2-16.7c-8.2-1.7-21,0.4-26.9,7.3C1597.9,806.3,1601.1,820.9,1601.9,829.1z"/>
</g>
<path id="XMLID_1_" class="st0" d="M1564,941.6c-0.6,2.3-1.8,5.3,0,5.7c1.8,0.5,2.6-3.2,1.4-5.4C1564.2,939.6,1564,941.6,1564,941.6
	z"/>
<path id="XMLID_2_" class="st0" d="M1552.7,945.5c-0.6,2.3-1.8,5.3,0,5.7c1.8,0.5,2.6-3.2,1.4-5.4
	C1552.9,943.6,1552.7,945.5,1552.7,945.5z"/>
<path id="XMLID_4_" class="st0" d="M1637.7,934.7c-0.6,2.3-1.8,5.3,0,5.7c1.8,0.5,2.6-3.2,1.4-5.4
	C1638,932.8,1637.7,934.7,1637.7,934.7z"/>
<g>
	<path class="st6" d="M917,934.6c-0.8-2.5,2-7.5-4.5-6.4c-5.2,5-5.6,13.2-4,20.2c1.7,7,5.1,13.5,6.7,20.5c0.3,1.4,0.6,2.8,1.4,4
		c0.8,1.2,2.4,2,3.7,1.4c1.2-0.5,1.7-1.9,2-3.1c2.7-12.1-7.6-24.5-4.2-36.4"/>
</g>
<g>
	<path class="st13" d="M918.5,952.9c0.3-4.7-1.8-9-3.8-12.8c-0.2,1.1-0.4,2.2-0.4,3.4c-0.2,3.8,0.6,7.6,1.3,11.3
		c0.6,3.1,1.3,6.2,1.9,9.3c0.4,1.8,0.8,3.6,1.8,4.8C919.7,963.7,919.9,957.9,918.5,952.9"/>
</g>
<g>
	<path class="st6" d="M1054.9,939c0.8-2.5-2-7.5,4.5-6.4c5.2,5,5.6,13.2,4,20.2c-1.7,7-5.1,13.5-6.7,20.5c-0.3,1.4-0.6,2.8-1.4,4
		c-0.8,1.2-2.4,2-3.7,1.4c-1.2-0.5-1.7-1.9-2-3.1c-2.7-12.1,7.6-24.5,4.2-36.4"/>
</g>
<g>
	<path class="st13" d="M1053.4,957.3c-0.3-4.7,1.8-9,3.8-12.8c0.2,1.1,0.4,2.2,0.4,3.4c0.2,3.8-0.6,7.6-1.3,11.3
		c-0.6,3.1-1.3,6.2-1.9,9.3c-0.4,1.8-0.8,3.6-1.8,4.8C1052.2,968,1052.1,962.3,1053.4,957.3"/>
</g>
<g>
	<path class="st6" d="M300.1,955.8c-0.8-2.5,2-7.5-4.5-6.4c-5.2,5-5.6,13.2-4,20.2c1.7,7,5.1,13.5,6.7,20.5c0.3,1.4,0.6,2.8,1.4,4
		c0.8,1.2,2.4,2,3.7,1.4c1.2-0.5,1.7-1.9,2-3.1c2.7-12.1-7.6-24.5-4.2-36.4"/>
</g>
<g>
	<path class="st13" d="M301.6,974.1c0.3-4.7-1.8-9-3.8-12.8c-0.2,1.1-0.4,2.2-0.4,3.4c-0.2,3.8,0.6,7.6,1.3,11.3
		c0.6,3.1,1.3,6.2,1.9,9.3c0.4,1.8,0.8,3.6,1.8,4.8C302.8,984.8,302.9,979.1,301.6,974.1"/>
</g>
<g>
	<path class="st6" d="M443.6,956.8c0.8-2.5-2-7.5,4.5-6.4c5.2,5,5.6,13.2,4,20.2c-1.7,7-5.1,13.5-6.7,20.5c-0.3,1.4-0.6,2.8-1.4,4
		c-0.8,1.2-2.4,2-3.7,1.4c-1.2-0.5-1.7-1.9-2-3.1c-2.7-12.1,7.6-24.5,4.2-36.4"/>
</g>
<g>
	<path class="st13" d="M443.1,975.1c-0.3-4.7,1.8-9,3.8-12.8c0.2,1.1,0.4,2.2,0.4,3.4c0.2,3.8-0.6,7.6-1.3,11.3
		c-0.6,3.1-1.3,6.2-1.9,9.3c-0.4,1.8-0.8,3.6-1.8,4.8C441.9,985.9,441.7,980.1,443.1,975.1"/>
</g>
<g>
	<path class="st2" d="M305.7,314.7c1.4,32.3,0.4,64.7-2.9,96.9c-0.1,1.2-0.3,2.5-1.1,3.3c-1.8,1.9-5.1,0.1-6.7-1.9
		c-4.4-5.7-5.2-13.3-5.7-20.5c-1.3-19.8-1.6-39.7-0.8-59.5c0.2-5.2,0.6-10.7,3.3-15.1s8.5-7.5,13.3-5.3"/>
</g>
<g>
	<path class="st2" d="M443.6,318.6c0,30.5,3.8,61.1,11.2,90.7c0.5,2.2,1.5,4.7,3.7,5.1c5.8-15.7,6-32.8,6-49.6
		c0.1-16.5,0.1-33.1-2.7-49.4c-0.5-2.7-1.1-5.4-2.9-7.5s-5.1-3-7.2-1.3"/>
</g>
<g>
	<g>
		<path class="st0" d="M293.8,515.2c10.8,22.2,31.9,38.9,56.1,43.9c13.4,2.8,27.5,2.3,40.6-1.7c13.2-4,24.9-11.4,36.1-19.4
			c5.9-4.2,11.9-8.3,17.2-13.2c5-4.5,9.2-9.9,10.8-16.6c0.7-3.1-4.1-4.5-4.8-1.3c-1.3,5.4-4.6,9.8-8.6,13.6
			c-4.3,4-9.1,7.4-13.8,10.8c-10.4,7.6-21.3,15.1-33.5,19.7c-23.7,8.8-50.8,5.3-71.3-9.5c-10.4-7.4-18.8-17.5-24.3-29
			c-0.6-1.2-2.3-1.5-3.4-0.9C293.5,512.5,293.2,513.9,293.8,515.2L293.8,515.2z"/>
	</g>
</g>
<g>
	<g>
		<path class="st0" d="M274,532.9c9.2,14.8,23.8,25.3,39.4,32.4c14.6,6.6,30.1,10.6,46,12.1c15.4,1.5,31.1,0.6,46.3-2.5
			c15.1-3.1,29.8-8.5,43.3-16.1c13.4-7.5,25.6-17.3,35.5-29c1.2-1.4,2.4-2.9,3.6-4.4c0.8-1.1,1-2.5,0-3.5c-0.9-0.9-2.7-1.1-3.5,0
			c-9.1,11.8-20.4,21.8-33.1,29.7c-12.7,7.9-26.6,13.6-41,17.1c-14.6,3.6-29.6,5-44.6,4.2c-15-0.8-29.9-4-43.9-9.4
			c-15.2-5.9-30.1-14.8-40.1-27.9c-1.3-1.7-2.4-3.4-3.5-5.2C276.6,527.6,272.3,530.1,274,532.9L274,532.9z"/>
	</g>
</g>
<g>
	<g>
		<path class="st0" d="M259.6,554.2c8.2,4.3,15.7,9.8,23.3,15c7.3,4.9,14.9,9.2,22.8,12.8c15.8,7.3,32.6,12,49.8,14.1
			c17,2.1,34.3,1.5,51.1-1.9c16-3.2,31.5-8.8,45.9-16.5c14.4-7.7,27.8-17.6,39.3-29.3c1.4-1.4,2.8-2.9,4.2-4.4
			c2.2-2.4-1.4-5.9-3.5-3.5c-10.8,11.8-23.4,21.9-37.2,29.9c-13.8,8.1-28.7,14.1-44.3,17.7c-16.1,3.8-32.7,4.9-49.2,3.6
			c-16.8-1.4-33.4-5.5-49-12c-7.7-3.2-15.2-7.1-22.4-11.6c-7.6-4.8-14.8-10.2-22.5-14.9c-2-1.2-3.9-2.3-6-3.4
			C259.3,548.4,256.8,552.7,259.6,554.2L259.6,554.2z"/>
	</g>
</g>
<g>
	<g>
		<path class="st0" d="M241.1,566.3c4.1,8.5,11.3,14.8,19.2,19.7c8.7,5.3,18.3,9.1,27.8,12.7c20.9,7.9,42.8,13.1,65,15.3
			c21.5,2.1,43.4,1.2,64.6-3.2c19.1-4,37.6-10.8,54.6-20.2c16.9-9.4,32.5-21.5,45.4-36c1.6-1.8,3.2-3.7,4.7-5.5c0.9-1,1-2.5,0-3.5
			c-0.9-0.9-2.7-1.1-3.5,0c-11.9,14.7-26.4,27.1-42.6,37c-16.2,9.9-33.9,17.2-52.4,21.8c-20.1,5-40.9,6.6-61.5,5.4
			c-21.7-1.3-43.1-5.7-63.7-12.6c-9.8-3.3-19.5-7-28.7-11.6c-7.9-3.9-15.9-8.8-21.2-16.1c-1.3-1.8-2.4-3.7-3.4-5.7
			c-0.6-1.2-2.3-1.5-3.4-0.9C240.7,563.7,240.5,565.1,241.1,566.3L241.1,566.3z"/>
	</g>
</g>
<g>
	<g>
		<path class="st0" d="M909.5,492.1c10.8,22.2,31.9,38.9,56.1,43.9c13.4,2.8,27.5,2.3,40.6-1.7c13.2-4,24.9-11.4,36.1-19.4
			c5.9-4.2,11.9-8.3,17.2-13.2c5-4.5,9.2-9.9,10.8-16.6c0.7-3.1-4.1-4.5-4.8-1.3c-1.3,5.4-4.6,9.8-8.6,13.6
			c-4.3,4-9.1,7.4-13.8,10.8c-10.4,7.6-21.3,15.1-33.5,19.7c-23.7,8.8-50.8,5.3-71.3-9.5c-10.4-7.4-18.8-17.5-24.3-29
			c-0.6-1.2-2.3-1.5-3.4-0.9C909.1,489.5,908.9,490.9,909.5,492.1L909.5,492.1z"/>
	</g>
</g>
<g>
	<g>
		<path class="st0" d="M889.7,509.9c9.2,14.8,23.8,25.3,39.4,32.4c14.6,6.6,30.1,10.6,46,12.1c15.4,1.5,31.1,0.6,46.3-2.5
			c15.1-3.1,29.8-8.5,43.3-16.1c13.4-7.5,25.6-17.3,35.5-29c1.2-1.4,2.4-2.9,3.6-4.4c0.8-1.1,1-2.5,0-3.5c-0.9-0.9-2.7-1.1-3.5,0
			c-9.1,11.8-20.4,21.8-33.1,29.7c-12.7,7.9-26.6,13.6-41,17.1c-14.6,3.6-29.6,5-44.6,4.2c-15-0.8-29.9-4-43.9-9.4
			c-15.2-5.9-30.1-14.8-40.1-27.9c-1.3-1.7-2.4-3.4-3.5-5.2C892.3,504.6,888,507.1,889.7,509.9L889.7,509.9z"/>
	</g>
</g>
<g>
	<g>
		<path class="st0" d="M875.3,531.2c8.2,4.3,15.7,9.8,23.3,15c7.3,4.9,14.9,9.2,22.8,12.8c15.8,7.3,32.6,12,49.8,14.1
			c17,2.1,34.3,1.5,51.1-1.9c16-3.2,31.5-8.8,45.9-16.5c14.4-7.7,27.8-17.6,39.3-29.3c1.4-1.4,2.8-2.9,4.2-4.4
			c2.2-2.4-1.4-5.9-3.5-3.5c-10.8,11.8-23.4,21.9-37.2,29.9c-13.8,8.1-28.7,14.1-44.3,17.7c-16.1,3.8-32.7,4.9-49.2,3.6
			c-16.8-1.4-33.4-5.5-49-12c-7.7-3.2-15.2-7.1-22.4-11.6c-7.6-4.8-14.8-10.2-22.5-14.9c-2-1.2-3.9-2.3-6-3.4
			C875,525.4,872.4,529.7,875.3,531.2L875.3,531.2z"/>
	</g>
</g>
<g>
	<g>
		<path class="st0" d="M856.7,543.3c4.1,8.5,11.3,14.8,19.2,19.7c8.7,5.3,18.3,9.1,27.8,12.7c20.9,7.9,42.8,13.1,65,15.3
			c21.5,2.1,43.4,1.2,64.6-3.2c19.1-4,37.6-10.8,54.6-20.2c16.9-9.4,32.5-21.5,45.4-36c1.6-1.8,3.2-3.7,4.7-5.5c0.9-1,1-2.5,0-3.5
			c-0.9-0.9-2.7-1.1-3.5,0c-11.9,14.7-26.4,27.1-42.6,37c-16.2,9.9-33.9,17.2-52.4,21.8c-20.1,5-40.9,6.6-61.5,5.4
			c-21.7-1.3-43.1-5.7-63.7-12.6c-9.8-3.3-19.5-7-28.7-11.6c-7.9-3.9-15.9-8.8-21.2-16.1c-1.3-1.8-2.4-3.7-3.4-5.7
			c-0.6-1.2-2.3-1.5-3.4-0.9C856.4,540.6,856.1,542.1,856.7,543.3L856.7,543.3z"/>
	</g>
</g>
<g>
	<g>
		<path class="st0" d="M1533.1,484.2c10.8,22.2,31.9,38.9,56.1,43.9c13.4,2.8,27.5,2.3,40.6-1.7c13.2-4,24.9-11.4,36.1-19.4
			c5.9-4.2,11.9-8.3,17.2-13.2c5-4.5,9.2-9.9,10.8-16.6c0.7-3.1-4.1-4.5-4.8-1.3c-1.3,5.4-4.6,9.8-8.6,13.6
			c-4.3,4-9.1,7.4-13.8,10.8c-10.4,7.6-21.3,15.1-33.5,19.7c-23.7,8.8-50.8,5.3-71.3-9.5c-10.4-7.4-18.8-17.5-24.3-29
			c-0.6-1.2-2.3-1.5-3.4-0.9C1532.8,481.5,1532.5,483,1533.1,484.2L1533.1,484.2z"/>
	</g>
</g>
<g>
	<g>
		<path class="st0" d="M1513.3,501.9c9.2,14.8,23.8,25.3,39.4,32.4c14.6,6.6,30.1,10.6,46,12.1c15.4,1.5,31.1,0.6,46.3-2.5
			c15.1-3.1,29.8-8.5,43.3-16.1c13.4-7.5,25.6-17.3,35.5-29c1.2-1.4,2.4-2.9,3.6-4.4c0.8-1.1,1-2.5,0-3.5c-0.9-0.9-2.7-1.1-3.5,0
			c-9.1,11.8-20.4,21.8-33.1,29.7c-12.7,7.9-26.6,13.6-41,17.1c-14.6,3.6-29.6,5-44.6,4.2c-15-0.8-29.9-4-43.9-9.4
			c-15.2-5.9-30.1-14.8-40.1-27.9c-1.3-1.7-2.4-3.4-3.5-5.2C1516,496.7,1511.6,499.2,1513.3,501.9L1513.3,501.9z"/>
	</g>
</g>
<g>
	<g>
		<path class="st0" d="M1499,523.2c8.2,4.3,15.7,9.8,23.3,15c7.3,4.9,14.9,9.2,22.8,12.8c15.8,7.3,32.6,12,49.8,14.1
			c17,2.1,34.3,1.5,51.1-1.9c16-3.2,31.5-8.8,45.9-16.5c14.4-7.7,27.8-17.6,39.3-29.3c1.4-1.4,2.8-2.9,4.2-4.4
			c2.2-2.4-1.4-5.9-3.5-3.5c-10.8,11.8-23.4,21.9-37.2,29.9c-13.8,8.1-28.7,14.1-44.3,17.7c-16.1,3.8-32.7,4.9-49.2,3.6
			c-16.8-1.4-33.4-5.5-49-12c-7.7-3.2-15.2-7.1-22.4-11.6c-7.6-4.8-14.8-10.2-22.5-14.9c-2-1.2-3.9-2.3-6-3.4
			C1498.6,517.4,1496.1,521.7,1499,523.2L1499,523.2z"/>
	</g>
</g>
<g>
	<g>
		<path class="st0" d="M1480.4,535.4c4.1,8.5,11.3,14.8,19.2,19.7c8.7,5.3,18.3,9.1,27.8,12.7c20.9,7.9,42.8,13.1,65,15.3
			c21.5,2.1,43.4,1.2,64.6-3.2c19.1-4,37.6-10.8,54.6-20.2c16.9-9.4,32.5-21.5,45.4-36c1.6-1.8,3.2-3.7,4.7-5.5c0.9-1,1-2.5,0-3.5
			c-0.9-0.9-2.7-1.1-3.5,0c-11.9,14.7-26.4,27.1-42.6,37c-16.2,9.9-33.9,17.2-52.4,21.8c-20.1,5-40.9,6.6-61.5,5.4
			c-21.7-1.3-43.1-5.7-63.7-12.6c-9.8-3.3-19.5-7-28.7-11.6c-7.9-3.9-15.9-8.8-21.2-16.1c-1.3-1.8-2.4-3.7-3.4-5.7
			c-0.6-1.2-2.3-1.5-3.4-0.9C1480,532.7,1479.8,534.1,1480.4,535.4L1480.4,535.4z"/>
	</g>
</g>
<g>
	<g>
		<path class="st0" d="M1466.6,561c5.2,8.7,14,14.4,23,18.6c10.3,4.9,21.3,8.4,32.1,11.6c23.4,7,47.4,11.5,71.7,13.5
			c24.2,2,48.7,1.3,72.7-2.5c21.9-3.5,43.4-9.6,63.7-18.5c19.2-8.4,37.3-19.5,52.9-33.5c1.9-1.7,3.7-3.4,5.4-5.1
			c2.4-2.3-1.3-5.9-3.6-3.6c-14.4,14.3-31.5,25.6-49.8,34.4c-19.4,9.4-40.1,15.9-61.2,19.9c-22.9,4.4-46.3,5.7-69.6,4.5
			c-23.9-1.2-47.5-5-70.6-11.2c-11.1-2.9-22.1-6.3-32.8-10.5c-9.2-3.5-18.7-7.9-25.6-15.2c-1.5-1.6-2.8-3.3-3.9-5.2
			C1469.4,555.6,1464.9,558.2,1466.6,561L1466.6,561z"/>
	</g>
</g>
<g>
	<g>
		<path class="st0" d="M297.6,1115.7c10.8,22.2,31.9,38.9,56.1,43.9c13.4,2.8,27.5,2.3,40.6-1.7c13.2-4,24.9-11.4,36.1-19.4
			c5.9-4.2,11.9-8.3,17.2-13.2c5-4.5,9.2-9.9,10.8-16.6c0.7-3.1-4.1-4.5-4.8-1.3c-1.3,5.4-4.6,9.8-8.6,13.6
			c-4.3,4-9.1,7.4-13.8,10.8c-10.4,7.6-21.3,15.1-33.5,19.7c-23.7,8.8-50.8,5.3-71.3-9.5c-10.4-7.4-18.8-17.5-24.3-29
			c-0.6-1.2-2.3-1.5-3.4-0.9C297.3,1113,297,1114.5,297.6,1115.7L297.6,1115.7z"/>
	</g>
</g>
<g>
	<g>
		<path class="st0" d="M277.8,1133.4c9.2,14.8,23.8,25.3,39.4,32.4c14.6,6.6,30.1,10.6,46,12.1c15.4,1.5,31.1,0.6,46.3-2.5
			c15.1-3.1,29.8-8.5,43.3-16.1c13.4-7.5,25.6-17.3,35.5-29c1.2-1.4,2.4-2.9,3.6-4.4c0.8-1.1,1-2.5,0-3.5c-0.9-0.9-2.7-1.1-3.5,0
			c-9.1,11.8-20.4,21.8-33.1,29.7c-12.7,7.9-26.6,13.6-41,17.1c-14.6,3.6-29.6,5-44.6,4.2c-15-0.8-29.9-4-43.9-9.4
			c-15.2-5.9-30.1-14.8-40.1-27.9c-1.3-1.7-2.4-3.4-3.5-5.2C280.5,1128.2,276.1,1130.7,277.8,1133.4L277.8,1133.4z"/>
	</g>
</g>
<g>
	<g>
		<path class="st0" d="M263.4,1154.8c8.2,4.3,15.7,9.8,23.3,15c7.3,4.9,14.9,9.2,22.8,12.8c15.8,7.3,32.6,12,49.8,14.1
			c17,2.1,34.3,1.5,51.1-1.9c16-3.2,31.5-8.8,45.9-16.5c14.4-7.7,27.8-17.6,39.3-29.3c1.4-1.4,2.8-2.9,4.2-4.4
			c2.2-2.4-1.4-5.9-3.5-3.5c-10.8,11.8-23.4,21.9-37.2,29.9c-13.8,8.1-28.7,14.1-44.3,17.7c-16.1,3.8-32.7,4.9-49.2,3.6
			c-16.8-1.4-33.4-5.5-49-12c-7.7-3.2-15.2-7.1-22.4-11.6c-7.6-4.8-14.8-10.2-22.5-14.9c-2-1.2-3.9-2.3-6-3.4
			C263.1,1148.9,260.6,1153.3,263.4,1154.8L263.4,1154.8z"/>
	</g>
</g>
<g>
	<g>
		<path class="st0" d="M244.9,1166.9c4.1,8.5,11.3,14.8,19.2,19.7c8.7,5.3,18.3,9.1,27.8,12.7c20.9,7.9,42.8,13.1,65,15.3
			c21.5,2.1,43.4,1.2,64.6-3.2c19.1-4,37.6-10.8,54.6-20.2c16.9-9.4,32.5-21.5,45.4-36c1.6-1.8,3.2-3.7,4.7-5.5c0.9-1,1-2.5,0-3.5
			c-0.9-0.9-2.7-1.1-3.5,0c-11.9,14.7-26.4,27.1-42.6,37c-16.2,9.9-33.9,17.2-52.4,21.8c-20.1,5-40.9,6.6-61.5,5.4
			c-21.7-1.3-43.1-5.7-63.7-12.6c-9.8-3.3-19.5-7-28.7-11.6c-7.9-3.9-15.9-8.8-21.2-16.1c-1.3-1.8-2.4-3.7-3.4-5.7
			c-0.6-1.2-2.3-1.5-3.4-0.9C244.5,1164.2,244.3,1165.7,244.9,1166.9L244.9,1166.9z"/>
	</g>
</g>
<g>
	<g>
		<path class="st0" d="M843.1,563.2c4.6,9.8,12.8,17.3,21.9,22.9c9.8,6.1,20.7,10.6,31.4,14.8c23.7,9.2,48.5,15.3,73.7,17.8
			c24.4,2.4,49.1,1.3,73.1-3.9c21.5-4.6,42.3-12.6,61.3-23.5c19.2-11,36.7-25.1,51.2-41.8c1.8-2.1,3.5-4.2,5.2-6.4
			c1-1.2,1.2-2.9,0-4.1c-1-1-3.1-1.2-4.1,0c-13.4,17-29.7,31.5-48,42.9c-18.1,11.4-37.9,19.8-58.6,25.2c-22.8,5.9-46.5,7.9-70,6.5
			c-24.5-1.4-48.7-6.6-71.9-14.6c-11.2-3.8-22.3-8.2-32.8-13.6c-9-4.6-17.9-10.3-23.8-18.7c-1.5-2.1-2.7-4.3-3.8-6.5
			c-0.7-1.4-2.7-1.8-3.9-1C842.7,560.2,842.4,561.8,843.1,563.2L843.1,563.2z"/>
	</g>
</g>
<g>
	<g>
		<path class="st0" d="M903.8,1098.9c10.8,22.2,31.9,38.9,56.1,43.9c13.4,2.8,27.5,2.3,40.6-1.7c13.2-4,24.9-11.4,36.1-19.4
			c5.9-4.2,11.9-8.3,17.2-13.2c5-4.5,9.2-9.9,10.8-16.6c0.7-3.1-4.1-4.5-4.8-1.3c-1.3,5.4-4.6,9.8-8.6,13.6
			c-4.3,4-9.1,7.4-13.8,10.8c-10.4,7.6-21.3,15.1-33.5,19.7c-23.7,8.8-50.8,5.3-71.3-9.5c-10.4-7.4-18.8-17.5-24.3-29
			c-0.6-1.2-2.3-1.5-3.4-0.9C903.5,1096.2,903.2,1097.7,903.8,1098.9L903.8,1098.9z"/>
	</g>
</g>
<g>
	<g>
		<path class="st0" d="M884,1116.6c9.2,14.8,23.8,25.3,39.4,32.4c14.6,6.6,30.1,10.6,46,12.1c15.4,1.5,31.1,0.6,46.3-2.5
			c15.1-3.1,29.8-8.5,43.3-16.1c13.4-7.5,25.6-17.3,35.5-29c1.2-1.4,2.4-2.9,3.6-4.4c0.8-1.1,1-2.5,0-3.5c-0.9-0.9-2.7-1.1-3.5,0
			c-9.1,11.8-20.4,21.8-33.1,29.7c-12.7,7.9-26.6,13.6-41,17.1c-14.6,3.6-29.6,5-44.6,4.2c-15-0.8-29.9-4-43.9-9.4
			c-15.2-5.9-30.1-14.8-40.1-27.9c-1.3-1.7-2.4-3.4-3.5-5.2C886.7,1111.4,882.3,1113.9,884,1116.6L884,1116.6z"/>
	</g>
</g>
<g>
	<g>
		<path class="st0" d="M869.7,1137.9c8.2,4.3,15.7,9.8,23.3,15c7.3,4.9,14.9,9.2,22.8,12.8c15.8,7.3,32.6,12,49.8,14.1
			c17,2.1,34.3,1.5,51.1-1.9c16-3.2,31.5-8.8,45.9-16.5c14.4-7.7,27.8-17.6,39.3-29.3c1.4-1.4,2.8-2.9,4.2-4.4
			c2.2-2.4-1.4-5.9-3.5-3.5c-10.8,11.8-23.4,21.9-37.2,29.9c-13.8,8.1-28.7,14.1-44.3,17.7c-16.1,3.8-32.7,4.9-49.2,3.6
			c-16.8-1.4-33.4-5.5-49-12c-7.7-3.2-15.2-7.1-22.4-11.6c-7.6-4.8-14.8-10.2-22.5-14.9c-2-1.2-3.9-2.3-6-3.4
			C869.3,1132.1,866.8,1136.4,869.7,1137.9L869.7,1137.9z"/>
	</g>
</g>
<g>
	<g>
		<path class="st0" d="M854.1,1154.4c4.1,8.5,11.3,14.8,19.2,19.7c8.7,5.3,18.3,9.1,27.8,12.7c20.9,7.9,42.8,13.1,65,15.3
			c21.5,2.1,43.4,1.2,64.6-3.2c19.1-4,37.6-10.8,54.6-20.2c16.9-9.4,32.5-21.5,45.4-36c1.6-1.8,3.2-3.7,4.7-5.5c0.9-1,1-2.5,0-3.5
			c-0.9-0.9-2.7-1.1-3.5,0c-11.9,14.7-26.4,27.1-42.6,37c-16.2,9.9-33.9,17.2-52.4,21.8c-20.1,5-40.9,6.6-61.5,5.4
			c-21.7-1.3-43.1-5.7-63.7-12.6c-9.8-3.3-19.5-7-28.7-11.6c-7.9-3.9-15.9-8.8-21.2-16.1c-1.3-1.8-2.4-3.7-3.4-5.7
			c-0.6-1.2-2.3-1.5-3.4-0.9C853.7,1151.7,853.5,1153.1,854.1,1154.4L854.1,1154.4z"/>
	</g>
</g>
<g>
	<g>
		<path class="st0" d="M1518.7,1090.9c10.8,22.2,31.9,38.9,56.1,43.9c13.4,2.8,27.5,2.3,40.6-1.7c13.2-4,24.9-11.4,36.1-19.4
			c5.9-4.2,11.9-8.3,17.2-13.2c5-4.5,9.2-9.9,10.8-16.6c0.7-3.1-4.1-4.5-4.8-1.3c-1.3,5.4-4.6,9.8-8.6,13.6
			c-4.3,4-9.1,7.4-13.8,10.8c-10.4,7.6-21.3,15.1-33.5,19.7c-23.7,8.8-50.8,5.3-71.3-9.5c-10.4-7.4-18.8-17.5-24.3-29
			c-0.6-1.2-2.3-1.5-3.4-0.9C1518.3,1088.2,1518.1,1089.7,1518.7,1090.9L1518.7,1090.9z"/>
	</g>
</g>
<g>
	<g>
		<path class="st0" d="M1498.9,1108.6c9.2,14.8,23.8,25.3,39.4,32.4c14.6,6.6,30.1,10.6,46,12.1c15.4,1.5,31.1,0.6,46.3-2.5
			c15.1-3.1,29.8-8.5,43.3-16.1c13.4-7.5,25.6-17.3,35.5-29c1.2-1.4,2.4-2.9,3.6-4.4c0.8-1.1,1-2.5,0-3.5c-0.9-0.9-2.7-1.1-3.5,0
			c-9.1,11.8-20.4,21.8-33.1,29.7c-12.7,7.9-26.6,13.6-41,17.1c-14.6,3.6-29.6,5-44.6,4.2c-15-0.8-29.9-4-43.9-9.4
			c-15.2-5.9-30.1-14.8-40.1-27.9c-1.3-1.7-2.4-3.4-3.5-5.2C1501.5,1103.3,1497.2,1105.8,1498.9,1108.6L1498.9,1108.6z"/>
	</g>
</g>
<g>
	<g>
		<path class="st0" d="M1484.5,1129.9c8.2,4.3,15.7,9.8,23.3,15c7.3,4.9,14.9,9.2,22.8,12.8c15.8,7.3,32.6,12,49.8,14.1
			c17,2.1,34.3,1.5,51.1-1.9c16-3.2,31.5-8.8,45.9-16.5c14.4-7.7,27.8-17.6,39.3-29.3c1.4-1.4,2.8-2.9,4.2-4.4
			c2.2-2.4-1.4-5.9-3.5-3.5c-10.8,11.8-23.4,21.9-37.2,29.9c-13.8,8.1-28.7,14.1-44.3,17.7c-16.1,3.8-32.7,4.9-49.2,3.6
			c-16.8-1.4-33.4-5.5-49-12c-7.7-3.2-15.2-7.1-22.4-11.6c-7.6-4.8-14.8-10.2-22.5-14.9c-2-1.2-3.9-2.3-6-3.4
			C1484.2,1124.1,1481.6,1128.4,1484.5,1129.9L1484.5,1129.9z"/>
	</g>
</g>
<g>
	<g>
		<path class="st0" d="M1465.9,1142.1c4.1,8.5,11.3,14.8,19.2,19.7c8.7,5.3,18.3,9.1,27.8,12.7c20.9,7.9,42.8,13.1,65,15.3
			c21.5,2.1,43.4,1.2,64.6-3.2c19.1-4,37.6-10.8,54.6-20.2c16.9-9.4,32.5-21.5,45.4-36c1.6-1.8,3.2-3.7,4.7-5.5c0.9-1,1-2.5,0-3.5
			c-0.9-0.9-2.7-1.1-3.5,0c-11.9,14.7-26.4,27.1-42.6,37c-16.2,9.9-33.9,17.2-52.4,21.8c-20.1,5-40.9,6.6-61.5,5.4
			c-21.7-1.3-43.1-5.7-63.7-12.6c-9.8-3.3-19.5-7-28.7-11.6c-7.9-3.9-15.9-8.8-21.2-16.1c-1.3-1.8-2.4-3.7-3.4-5.7
			c-0.6-1.2-2.3-1.5-3.4-0.9C1465.5,1139.4,1465.3,1140.8,1465.9,1142.1L1465.9,1142.1z"/>
	</g>
</g>
</svg>
